%TF.GenerationSoftware,KiCad,Pcbnew,(6.0.7)*%
%TF.CreationDate,2023-11-21T21:52:02-06:00*%
%TF.ProjectId,Male ECU Connector,4d616c65-2045-4435-9520-436f6e6e6563,rev?*%
%TF.SameCoordinates,Original*%
%TF.FileFunction,Soldermask,Bot*%
%TF.FilePolarity,Negative*%
%FSLAX46Y46*%
G04 Gerber Fmt 4.6, Leading zero omitted, Abs format (unit mm)*
G04 Created by KiCad (PCBNEW (6.0.7)) date 2023-11-21 21:52:02*
%MOMM*%
%LPD*%
G01*
G04 APERTURE LIST*
G04 Aperture macros list*
%AMFreePoly0*
4,1,6,1.000000,0.000000,0.500000,-0.750000,-0.500000,-0.750000,-0.500000,0.750000,0.500000,0.750000,1.000000,0.000000,1.000000,0.000000,$1*%
%AMFreePoly1*
4,1,6,0.500000,-0.750000,-0.650000,-0.750000,-0.150000,0.000000,-0.650000,0.750000,0.500000,0.750000,0.500000,-0.750000,0.500000,-0.750000,$1*%
G04 Aperture macros list end*
%ADD10R,3.000000X6.000000*%
%ADD11C,4.000000*%
%ADD12R,1.600000X1.600000*%
%ADD13C,1.600000*%
%ADD14R,2.300000X2.300000*%
%ADD15O,2.300000X2.300000*%
%ADD16FreePoly0,180.000000*%
%ADD17FreePoly1,180.000000*%
%ADD18FreePoly0,270.000000*%
%ADD19FreePoly1,270.000000*%
%ADD20FreePoly0,0.000000*%
%ADD21FreePoly1,0.000000*%
G04 APERTURE END LIST*
D10*
%TO.C,J3*%
X89500000Y-107750000D03*
X94500000Y-107750000D03*
X99500000Y-107750000D03*
X104500000Y-107750000D03*
X109500000Y-107750000D03*
X114500000Y-107750000D03*
X119500000Y-107750000D03*
X124500000Y-107750000D03*
X129500000Y-107750000D03*
X134500000Y-107750000D03*
X139500000Y-107750000D03*
X144500000Y-107750000D03*
X149500000Y-107750000D03*
X154500000Y-107750000D03*
X159500000Y-107750000D03*
X164500000Y-107750000D03*
X169500000Y-107750000D03*
X174500000Y-107750000D03*
X179500000Y-107750000D03*
X184500000Y-107750000D03*
X189500000Y-107750000D03*
X194500000Y-107750000D03*
X199500000Y-107750000D03*
X204500000Y-107750000D03*
X209500000Y-107750000D03*
%TD*%
D11*
%TO.C,J1*%
X173050000Y-69080000D03*
X125950000Y-69080000D03*
D12*
X132880000Y-70500000D03*
D13*
X135650000Y-70500000D03*
X138420000Y-70500000D03*
X141190000Y-70500000D03*
X143960000Y-70500000D03*
X146730000Y-70500000D03*
X149500000Y-70500000D03*
X152270000Y-70500000D03*
X155040000Y-70500000D03*
X157810000Y-70500000D03*
X160580000Y-70500000D03*
X163350000Y-70500000D03*
X166120000Y-70500000D03*
X134265000Y-67660000D03*
X137035000Y-67660000D03*
X139805000Y-67660000D03*
X142575000Y-67660000D03*
X145345000Y-67660000D03*
X148115000Y-67660000D03*
X150885000Y-67660000D03*
X153655000Y-67660000D03*
X156425000Y-67660000D03*
X159195000Y-67660000D03*
X161965000Y-67660000D03*
X164735000Y-67660000D03*
%TD*%
D14*
%TO.C,J2*%
X113800000Y-94000000D03*
D15*
X116800000Y-94000000D03*
X119800000Y-94000000D03*
X122800000Y-94000000D03*
X125800000Y-94000000D03*
X128800000Y-94000000D03*
X131800000Y-94000000D03*
X134800000Y-94000000D03*
X137800000Y-94000000D03*
X140800000Y-94000000D03*
X143800000Y-94000000D03*
X146800000Y-94000000D03*
X149800000Y-94000000D03*
X152800000Y-94000000D03*
X155800000Y-94000000D03*
X158800000Y-94000000D03*
X161800000Y-94000000D03*
X164800000Y-94000000D03*
X167800000Y-94000000D03*
X170800000Y-94000000D03*
X173800000Y-94000000D03*
X176800000Y-94000000D03*
X179800000Y-94000000D03*
X182800000Y-94000000D03*
X185800000Y-94000000D03*
%TD*%
D16*
%TO.C,JP7*%
X173325000Y-99400000D03*
D17*
X171875000Y-99400000D03*
%TD*%
D18*
%TO.C,JP8*%
X127800000Y-83675000D03*
D19*
X127800000Y-85125000D03*
%TD*%
D20*
%TO.C,JP5*%
X134675000Y-100400000D03*
D21*
X136125000Y-100400000D03*
%TD*%
D16*
%TO.C,JP2*%
X178725000Y-99400000D03*
D17*
X177275000Y-99400000D03*
%TD*%
D20*
%TO.C,JP4*%
X112675000Y-80800000D03*
D21*
X114125000Y-80800000D03*
%TD*%
D16*
%TO.C,JP9*%
X135925000Y-79400000D03*
D17*
X134475000Y-79400000D03*
%TD*%
D16*
%TO.C,JP6*%
X168600000Y-99400000D03*
D17*
X167150000Y-99400000D03*
%TD*%
D16*
%TO.C,JP3*%
X175925000Y-91000000D03*
D17*
X174475000Y-91000000D03*
%TD*%
D16*
%TO.C,JP1*%
X157525000Y-98200000D03*
D17*
X156075000Y-98200000D03*
%TD*%
M02*
