M48
; DRILL file {KiCad (6.0.7)} date Sun Nov 19 20:40:52 2023
; FORMAT={-:-/ absolute / inch / decimal}
; #@! TF.CreationDate,2023-11-19T20:40:52-06:00
; #@! TF.GenerationSoftware,Kicad,Pcbnew,(6.0.7)
; #@! TF.FileFunction,Plated,1,2,PTH
FMAT,2
INCH
; #@! TA.AperFunction,Plated,PTH,ViaDrill
T1C0.0118
; #@! TA.AperFunction,Plated,PTH,ViaDrill
T2C0.0157
; #@! TA.AperFunction,Plated,PTH,ComponentDrill
T3C0.0394
; #@! TA.AperFunction,Plated,PTH,ComponentDrill
T4C0.0630
; #@! TA.AperFunction,Plated,PTH,ComponentDrill
T5C0.1260
%
G90
G05
T1
X3.4127Y-3.9753
X3.4127Y-4.1721
X3.6095Y-3.7784
X3.6095Y-3.9753
X3.6142Y-4.2441
X3.6299Y-4.189
X3.6614Y-3.937
X3.8031Y-4.2441
X3.8064Y-3.7784
X3.8064Y-4.1721
X4.003Y-4.0974
X4.0032Y-3.9753
X4.0032Y-4.1721
X4.2001Y-4.1721
X4.2037Y-4.0935
X4.2283Y-3.9528
X4.3504Y-3.1969
X4.3504Y-3.6417
X4.3504Y-3.7598
X4.3969Y-2.7942
X4.3969Y-2.991
X4.3969Y-3.3847
X4.3969Y-3.5816
X4.3969Y-3.7784
X4.3969Y-3.9753
X4.3969Y-4.1721
X4.4016Y-4.0925
X4.4016Y-4.2598
X4.5896Y-4.1014
X4.5906Y-3.063
X4.5938Y-2.7942
X4.5938Y-4.1721
X4.622Y-4.2441
X4.6654Y-3.1614
X4.6929Y-3.4331
X4.7521Y-4.067
X4.7906Y-4.1721
X4.8189Y-4.2441
X4.8661Y-2.5591
X4.8976Y-2.5984
X4.9875Y-2.4005
X4.9875Y-3.9753
X5.0Y-4.1811
X5.0079Y-4.2362
X5.0157Y-4.0394
X5.0236Y-3.4961
X5.0315Y-3.0
X5.0866Y-3.1575
X5.0866Y-3.1969
X5.0945Y-2.8031
X5.0945Y-3.2283
X5.0945Y-3.2756
X5.0945Y-3.3937
X5.0984Y-3.3504
X5.1024Y-2.7323
X5.1575Y-2.8356
X5.1654Y-2.9764
X5.1844Y-2.4005
X5.1844Y-3.7784
X5.1844Y-4.1721
X5.194Y-3.8661
X5.2047Y-4.2441
X5.2126Y-2.5591
X5.2133Y-3.6259
X5.2165Y-3.4528
X5.2227Y-2.8564
X5.2283Y-3.2598
X5.2283Y-3.378
X5.2423Y-3.5092
X5.2559Y-2.9184
X5.2992Y-2.5984
X5.3071Y-2.9449
X5.3228Y-3.0551
X5.3228Y-3.4488
X5.3228Y-3.4803
X5.3307Y-3.5827
X5.3386Y-3.0
X5.3465Y-3.3543
X5.3618Y-3.6531
X5.3622Y-3.2047
X5.3701Y-3.8031
X5.3808Y-3.6098
X5.3812Y-2.4005
X5.3812Y-4.1721
X5.3839Y-3.2658
X5.3858Y-2.8898
X5.3937Y-2.7953
X5.3937Y-4.2362
X5.4488Y-4.0866
X5.4567Y-2.5433
X5.4567Y-3.0551
X5.4567Y-3.2047
X5.4567Y-3.3543
X5.4646Y-3.5039
X5.5039Y-3.7795
X5.5039Y-3.937
X5.5118Y-3.5827
X5.5276Y-4.0866
X5.5781Y-2.4005
X5.5781Y-2.5973
X5.5781Y-3.5816
X5.5781Y-3.9753
X5.5781Y-4.1721
X5.5906Y-4.2362
X5.6063Y-3.7638
X5.6142Y-3.2047
X5.6157Y-2.8712
X5.6457Y-4.0866
X5.6671Y-3.5476
X5.6693Y-3.2992
X5.7165Y-3.252
X5.7165Y-3.6535
X5.7165Y-3.7638
X5.7244Y-2.7323
X5.7244Y-3.2047
X5.7323Y-4.0866
X5.7541Y-2.8712
X5.7559Y-2.8268
X5.7559Y-3.5827
X5.7749Y-2.4005
X5.7749Y-2.5973
X5.7749Y-3.7784
X5.7749Y-3.9753
X5.7795Y-4.2047
X5.7953Y-3.4646
X5.7953Y-4.2441
X5.8346Y-3.6535
X5.8346Y-3.7638
X5.8504Y-2.8268
X5.8583Y-3.3937
X5.874Y-3.6299
X5.8819Y-3.8661
X5.9291Y-2.5433
X5.937Y-2.8031
X5.9449Y-3.1339
X5.9718Y-2.4005
X5.9718Y-3.3847
X5.9718Y-3.7784
X5.9718Y-3.9753
X5.9718Y-4.1721
X5.9843Y-2.9449
X5.9921Y-4.2441
X6.0Y-3.5512
X6.0157Y-3.6142
X6.0523Y-2.7115
X6.0551Y-3.0866
X6.0551Y-3.1811
X6.0551Y-3.8031
X6.1024Y-2.6378
X6.1024Y-3.4449
X6.1024Y-3.5236
X6.1102Y-3.0079
X6.1102Y-3.1339
X6.121Y-3.7688
X6.1339Y-2.8268
X6.1417Y-3.4409
X6.1575Y-2.5118
X6.1686Y-2.4005
X6.1686Y-3.3847
X6.1686Y-3.7784
X6.1686Y-3.9753
X6.1686Y-4.1721
X6.1732Y-2.8268
X6.1732Y-3.1969
X6.1732Y-3.2598
X6.1732Y-3.6299
X6.189Y-4.2441
X6.2126Y-2.6378
X6.2205Y-2.8346
X6.2205Y-3.4409
X6.2205Y-3.5827
X6.2283Y-3.1417
X6.2441Y-3.6142
X6.252Y-3.3937
X6.2677Y-2.7559
X6.2677Y-2.8189
X6.2677Y-2.5827
X6.2756Y-3.4409
X6.2835Y-2.8661
X6.2913Y-3.0472
X6.2992Y-3.2598
X6.3228Y-2.6378
X6.3307Y-2.9764
X6.348Y-3.5619
X6.3543Y-2.7323
X6.3543Y-2.8268
X6.3543Y-3.3386
X6.3579Y-3.368
X6.3622Y-4.063
X6.3655Y-2.4005
X6.3655Y-3.9753
X6.3655Y-4.1721
X6.4291Y-3.4055
X6.4331Y-2.6378
X6.4331Y-2.9764
X6.4646Y-3.4803
X6.4961Y-3.5591
X6.5Y-3.3701
X6.5039Y-3.2362
X6.5039Y-3.2992
X6.5118Y-3.0472
X6.5197Y-3.3386
X6.5433Y-2.5512
X6.5528Y-3.5619
X6.5623Y-2.4005
X6.5623Y-4.1721
X6.5748Y-4.0472
X6.5787Y-2.9843
X6.5827Y-4.2441
X6.5984Y-2.6142
X6.6063Y-2.9134
X6.6063Y-3.6299
X6.622Y-2.5118
X6.6299Y-2.7165
X6.6299Y-2.8661
X6.6378Y-3.1969
X6.6378Y-3.2362
X6.6446Y-3.1496
X6.6457Y-3.2992
X6.6457Y-3.5039
X6.6614Y-3.8189
X6.6693Y-2.8346
X6.6709Y-3.5619
X6.6721Y-3.2323
X6.6732Y-3.9921
X6.685Y-2.874
X6.6929Y-3.1969
X6.7008Y-2.5827
X6.7008Y-2.8031
X6.7165Y-3.9134
X6.7244Y-3.1496
X6.7592Y-2.4005
X6.7592Y-2.5973
X6.7592Y-2.991
X6.7592Y-3.7784
X6.7592Y-3.9753
X6.7638Y-3.0551
X6.7638Y-3.5039
X6.7638Y-4.1969
X6.7717Y-4.063
X6.7795Y-3.5906
X6.7795Y-4.2441
X6.7874Y-2.8504
X6.7874Y-3.3543
X6.811Y-3.1811
X6.8268Y-2.8268
X6.8701Y-3.7835
X6.874Y-3.0551
X6.874Y-3.8425
X6.879Y-3.2548
X6.8819Y-3.1496
X6.8819Y-3.2047
X6.8898Y-3.3543
X6.8976Y-4.0236
X6.9134Y-2.5512
X6.937Y-3.8425
X6.956Y-2.7942
X6.956Y-3.7784
X6.956Y-3.9753
X6.956Y-4.1721
X6.9843Y-4.2441
X7.0315Y-3.5512
X7.0945Y-3.2126
X7.0945Y-3.2913
X7.0945Y-3.5433
X7.1024Y-3.4016
X7.1529Y-2.7942
X7.1529Y-3.9753
X7.1529Y-4.1721
X7.1654Y-3.5669
X7.1693Y-2.9724
X7.1811Y-4.2441
X7.2441Y-4.0315
X7.2598Y-3.3543
X7.2677Y-3.622
X7.3497Y-2.7942
X7.3497Y-2.991
X7.3497Y-3.1879
X7.3497Y-3.3847
X7.3497Y-3.5816
X7.3497Y-4.1721
X7.3701Y-4.2441
X7.4016Y-4.0866
X7.5669Y-4.1811
X7.5748Y-4.2441
X7.7559Y-4.1969
X7.7717Y-4.2441
X7.9403Y-3.7784
X7.9528Y-4.189
X8.1371Y-3.7784
X8.1371Y-3.9753
X8.1417Y-3.9213
X8.1417Y-4.1969
X8.1575Y-4.2677
X8.334Y-3.9753
X8.334Y-4.1721
T2
X6.4764Y-4.0748
X7.9616Y-4.0935
T3
X5.2315Y-2.7756
X5.286Y-2.6638
X5.3406Y-2.7756
X5.3951Y-2.6638
X5.4496Y-2.7756
X5.5041Y-2.6638
X5.5587Y-2.7756
X5.6132Y-2.6638
X5.6677Y-2.7756
X5.7222Y-2.6638
X5.7768Y-2.7756
X5.8313Y-2.6638
X5.8858Y-2.7756
X5.9404Y-2.6638
X5.9949Y-2.7756
X6.0494Y-2.6638
X6.1039Y-2.7756
X6.1585Y-2.6638
X6.213Y-2.7756
X6.2675Y-2.6638
X6.322Y-2.7756
X6.3766Y-2.6638
X6.4311Y-2.7756
X6.4856Y-2.6638
X6.5402Y-2.7756
T4
X4.4803Y-3.7008
X4.5984Y-3.7008
X4.7165Y-3.7008
X4.8346Y-3.7008
X4.9528Y-3.7008
X5.0709Y-3.7008
X5.189Y-3.7008
X5.3071Y-3.7008
X5.4252Y-3.7008
X5.5433Y-3.7008
X5.6614Y-3.7008
X5.7795Y-3.7008
X5.8976Y-3.7008
X6.0157Y-3.7008
X6.1339Y-3.7008
X6.252Y-3.7008
X6.3701Y-3.7008
X6.4882Y-3.7008
X6.6063Y-3.7008
X6.7244Y-3.7008
X6.8425Y-3.7008
X6.9606Y-3.7008
X7.0787Y-3.7008
X7.1969Y-3.7008
X7.315Y-3.7008
T5
X4.9587Y-2.7197
X6.813Y-2.7197
T0
M30
