%TF.GenerationSoftware,KiCad,Pcbnew,(6.0.7)*%
%TF.CreationDate,2023-11-11T13:33:03-06:00*%
%TF.ProjectId,Male ECU Connector,4d616c65-2045-4435-9520-436f6e6e6563,rev?*%
%TF.SameCoordinates,Original*%
%TF.FileFunction,Soldermask,Top*%
%TF.FilePolarity,Negative*%
%FSLAX46Y46*%
G04 Gerber Fmt 4.6, Leading zero omitted, Abs format (unit mm)*
G04 Created by KiCad (PCBNEW (6.0.7)) date 2023-11-11 13:33:03*
%MOMM*%
%LPD*%
G01*
G04 APERTURE LIST*
G04 Aperture macros list*
%AMRoundRect*
0 Rectangle with rounded corners*
0 $1 Rounding radius*
0 $2 $3 $4 $5 $6 $7 $8 $9 X,Y pos of 4 corners*
0 Add a 4 corners polygon primitive as box body*
4,1,4,$2,$3,$4,$5,$6,$7,$8,$9,$2,$3,0*
0 Add four circle primitives for the rounded corners*
1,1,$1+$1,$2,$3*
1,1,$1+$1,$4,$5*
1,1,$1+$1,$6,$7*
1,1,$1+$1,$8,$9*
0 Add four rect primitives between the rounded corners*
20,1,$1+$1,$2,$3,$4,$5,0*
20,1,$1+$1,$4,$5,$6,$7,0*
20,1,$1+$1,$6,$7,$8,$9,0*
20,1,$1+$1,$8,$9,$2,$3,0*%
G04 Aperture macros list end*
%ADD10C,1.500000*%
%ADD11R,3.000000X6.000000*%
%ADD12R,1.700000X1.700000*%
%ADD13O,1.700000X1.700000*%
%ADD14R,2.300000X2.300000*%
%ADD15O,2.300000X2.300000*%
%ADD16RoundRect,0.225000X-0.225000X-0.250000X0.225000X-0.250000X0.225000X0.250000X-0.225000X0.250000X0*%
%ADD17RoundRect,0.200000X-0.200000X-0.275000X0.200000X-0.275000X0.200000X0.275000X-0.200000X0.275000X0*%
%ADD18RoundRect,0.200000X0.200000X0.275000X-0.200000X0.275000X-0.200000X-0.275000X0.200000X-0.275000X0*%
%ADD19RoundRect,0.225000X0.225000X0.250000X-0.225000X0.250000X-0.225000X-0.250000X0.225000X-0.250000X0*%
%ADD20RoundRect,0.225000X0.250000X-0.225000X0.250000X0.225000X-0.250000X0.225000X-0.250000X-0.225000X0*%
%ADD21R,1.500000X2.000000*%
%ADD22R,3.800000X2.000000*%
%ADD23RoundRect,0.150000X-0.875000X-0.150000X0.875000X-0.150000X0.875000X0.150000X-0.875000X0.150000X0*%
%ADD24RoundRect,0.100000X0.100000X-0.712500X0.100000X0.712500X-0.100000X0.712500X-0.100000X-0.712500X0*%
G04 APERTURE END LIST*
D10*
%TO.C,FID3*%
X184300000Y-72900000D03*
%TD*%
%TO.C,FID2*%
X204300000Y-96000000D03*
%TD*%
%TO.C,FID1*%
X94100000Y-96100000D03*
%TD*%
D11*
%TO.C,J3*%
X89500000Y-107750000D03*
X94500000Y-107750000D03*
X99500000Y-107750000D03*
X104500000Y-107750000D03*
X109500000Y-107750000D03*
X114500000Y-107750000D03*
X119500000Y-107750000D03*
X124500000Y-107750000D03*
X129500000Y-107750000D03*
X134500000Y-107750000D03*
X139500000Y-107750000D03*
X144500000Y-107750000D03*
X149500000Y-107750000D03*
X154500000Y-107750000D03*
X159500000Y-107750000D03*
X164500000Y-107750000D03*
X169500000Y-107750000D03*
X174500000Y-107750000D03*
X179500000Y-107750000D03*
X184500000Y-107750000D03*
X189500000Y-107750000D03*
X194500000Y-107750000D03*
X199500000Y-107750000D03*
X204500000Y-107750000D03*
X209500000Y-107750000D03*
%TD*%
D12*
%TO.C,J1*%
X119125000Y-71200000D03*
D13*
X121665000Y-71200000D03*
X124205000Y-71200000D03*
X126745000Y-71200000D03*
X129285000Y-71200000D03*
X131825000Y-71200000D03*
X134365000Y-71200000D03*
X136905000Y-71200000D03*
X139445000Y-71200000D03*
X141985000Y-71200000D03*
X144525000Y-71200000D03*
X147065000Y-71200000D03*
X149605000Y-71200000D03*
X152145000Y-71200000D03*
X154685000Y-71200000D03*
X157225000Y-71200000D03*
X159765000Y-71200000D03*
X162305000Y-71200000D03*
X164845000Y-71200000D03*
X167385000Y-71200000D03*
X169925000Y-71200000D03*
X172465000Y-71200000D03*
X175005000Y-71200000D03*
X177545000Y-71200000D03*
X180085000Y-71200000D03*
%TD*%
D14*
%TO.C,J2*%
X113800000Y-94000000D03*
D15*
X116800000Y-94000000D03*
X119800000Y-94000000D03*
X122800000Y-94000000D03*
X125800000Y-94000000D03*
X128800000Y-94000000D03*
X131800000Y-94000000D03*
X134800000Y-94000000D03*
X137800000Y-94000000D03*
X140800000Y-94000000D03*
X143800000Y-94000000D03*
X146800000Y-94000000D03*
X149800000Y-94000000D03*
X152800000Y-94000000D03*
X155800000Y-94000000D03*
X158800000Y-94000000D03*
X161800000Y-94000000D03*
X164800000Y-94000000D03*
X167800000Y-94000000D03*
X170800000Y-94000000D03*
X173800000Y-94000000D03*
X176800000Y-94000000D03*
X179800000Y-94000000D03*
X182800000Y-94000000D03*
X185800000Y-94000000D03*
%TD*%
D16*
%TO.C,C5*%
X142425000Y-82600000D03*
X143975000Y-82600000D03*
%TD*%
D17*
%TO.C,R9*%
X127175000Y-87600000D03*
X128825000Y-87600000D03*
%TD*%
D18*
%TO.C,R10*%
X144025000Y-78800000D03*
X142375000Y-78800000D03*
%TD*%
D19*
%TO.C,C2*%
X151055000Y-90170000D03*
X149505000Y-90170000D03*
%TD*%
D20*
%TO.C,C1*%
X158155000Y-82687500D03*
X158155000Y-81137500D03*
%TD*%
D21*
%TO.C,U1*%
X148700000Y-87950000D03*
X151000000Y-87950000D03*
D22*
X151000000Y-81650000D03*
D21*
X153300000Y-87950000D03*
%TD*%
D17*
%TO.C,R6*%
X127175000Y-78800000D03*
X128825000Y-78800000D03*
%TD*%
D16*
%TO.C,C3*%
X152305000Y-79570000D03*
X153855000Y-79570000D03*
%TD*%
D23*
%TO.C,U2*%
X167150000Y-77485000D03*
X167150000Y-78755000D03*
X167150000Y-80025000D03*
X167150000Y-81295000D03*
X167150000Y-82565000D03*
X167150000Y-83835000D03*
X167150000Y-85105000D03*
X167150000Y-86375000D03*
X167150000Y-87645000D03*
X167150000Y-88915000D03*
X176450000Y-88915000D03*
X176450000Y-87645000D03*
X176450000Y-86375000D03*
X176450000Y-85105000D03*
X176450000Y-83835000D03*
X176450000Y-82565000D03*
X176450000Y-81295000D03*
X176450000Y-80025000D03*
X176450000Y-78755000D03*
X176450000Y-77485000D03*
%TD*%
D16*
%TO.C,C4*%
X178625000Y-82600000D03*
X180175000Y-82600000D03*
%TD*%
D17*
%TO.C,R1*%
X178575000Y-89000000D03*
X180225000Y-89000000D03*
%TD*%
%TO.C,R7*%
X163375000Y-87600000D03*
X165025000Y-87600000D03*
%TD*%
%TO.C,R5*%
X163375000Y-78800000D03*
X165025000Y-78800000D03*
%TD*%
D18*
%TO.C,R3*%
X144025000Y-87800000D03*
X142375000Y-87800000D03*
%TD*%
D23*
%TO.C,U3*%
X130950000Y-77485000D03*
X130950000Y-78755000D03*
X130950000Y-80025000D03*
X130950000Y-81295000D03*
X130950000Y-82565000D03*
X130950000Y-83835000D03*
X130950000Y-85105000D03*
X130950000Y-86375000D03*
X130950000Y-87645000D03*
X130950000Y-88915000D03*
X140250000Y-88915000D03*
X140250000Y-87645000D03*
X140250000Y-86375000D03*
X140250000Y-85105000D03*
X140250000Y-83835000D03*
X140250000Y-82565000D03*
X140250000Y-81295000D03*
X140250000Y-80025000D03*
X140250000Y-78755000D03*
X140250000Y-77485000D03*
%TD*%
D24*
%TO.C,U4*%
X158050000Y-88825000D03*
X158700000Y-88825000D03*
X159350000Y-88825000D03*
X160000000Y-88825000D03*
X160000000Y-84600000D03*
X159350000Y-84600000D03*
X158700000Y-84600000D03*
X158050000Y-84600000D03*
%TD*%
D18*
%TO.C,R4*%
X180225000Y-87400000D03*
X178575000Y-87400000D03*
%TD*%
%TO.C,R2*%
X165025000Y-89200000D03*
X163375000Y-89200000D03*
%TD*%
%TO.C,R8*%
X180225000Y-78800000D03*
X178575000Y-78800000D03*
%TD*%
M02*
