%TF.GenerationSoftware,KiCad,Pcbnew,(6.0.7)*%
%TF.CreationDate,2023-11-11T13:33:03-06:00*%
%TF.ProjectId,Male ECU Connector,4d616c65-2045-4435-9520-436f6e6e6563,rev?*%
%TF.SameCoordinates,Original*%
%TF.FileFunction,Legend,Bot*%
%TF.FilePolarity,Positive*%
%FSLAX46Y46*%
G04 Gerber Fmt 4.6, Leading zero omitted, Abs format (unit mm)*
G04 Created by KiCad (PCBNEW (6.0.7)) date 2023-11-11 13:33:03*
%MOMM*%
%LPD*%
G01*
G04 APERTURE LIST*
%ADD10C,0.200000*%
%ADD11C,0.150000*%
%ADD12C,0.120000*%
G04 APERTURE END LIST*
D10*
X179857142Y-84399642D02*
X179642857Y-84471071D01*
X179285714Y-84471071D01*
X179142857Y-84399642D01*
X179071428Y-84328214D01*
X179000000Y-84185357D01*
X179000000Y-84042500D01*
X179071428Y-83899642D01*
X179142857Y-83828214D01*
X179285714Y-83756785D01*
X179571428Y-83685357D01*
X179714285Y-83613928D01*
X179785714Y-83542500D01*
X179857142Y-83399642D01*
X179857142Y-83256785D01*
X179785714Y-83113928D01*
X179714285Y-83042500D01*
X179571428Y-82971071D01*
X179214285Y-82971071D01*
X179000000Y-83042500D01*
X178071428Y-82971071D02*
X177785714Y-82971071D01*
X177642857Y-83042500D01*
X177500000Y-83185357D01*
X177428571Y-83471071D01*
X177428571Y-83971071D01*
X177500000Y-84256785D01*
X177642857Y-84399642D01*
X177785714Y-84471071D01*
X178071428Y-84471071D01*
X178214285Y-84399642D01*
X178357142Y-84256785D01*
X178428571Y-83971071D01*
X178428571Y-83471071D01*
X178357142Y-83185357D01*
X178214285Y-83042500D01*
X178071428Y-82971071D01*
X176071428Y-84471071D02*
X176785714Y-84471071D01*
X176785714Y-82971071D01*
X175571428Y-84471071D02*
X175571428Y-82971071D01*
X175214285Y-82971071D01*
X175000000Y-83042500D01*
X174857142Y-83185357D01*
X174785714Y-83328214D01*
X174714285Y-83613928D01*
X174714285Y-83828214D01*
X174785714Y-84113928D01*
X174857142Y-84256785D01*
X175000000Y-84399642D01*
X175214285Y-84471071D01*
X175571428Y-84471071D01*
X174071428Y-83685357D02*
X173571428Y-83685357D01*
X173357142Y-84471071D02*
X174071428Y-84471071D01*
X174071428Y-82971071D01*
X173357142Y-82971071D01*
X171857142Y-84471071D02*
X172357142Y-83756785D01*
X172714285Y-84471071D02*
X172714285Y-82971071D01*
X172142857Y-82971071D01*
X172000000Y-83042500D01*
X171928571Y-83113928D01*
X171857142Y-83256785D01*
X171857142Y-83471071D01*
X171928571Y-83613928D01*
X172000000Y-83685357D01*
X172142857Y-83756785D01*
X172714285Y-83756785D01*
X170142857Y-84042500D02*
X169428571Y-84042500D01*
X170285714Y-84471071D02*
X169785714Y-82971071D01*
X169285714Y-84471071D01*
X168071428Y-84471071D02*
X168785714Y-84471071D01*
X168785714Y-82971071D01*
X166857142Y-84471071D02*
X167571428Y-84471071D01*
X167571428Y-82971071D01*
X164785714Y-82971071D02*
X164785714Y-84042500D01*
X164857142Y-84256785D01*
X165000000Y-84399642D01*
X165214285Y-84471071D01*
X165357142Y-84471071D01*
X164071428Y-82971071D02*
X164071428Y-84185357D01*
X164000000Y-84328214D01*
X163928571Y-84399642D01*
X163785714Y-84471071D01*
X163500000Y-84471071D01*
X163357142Y-84399642D01*
X163285714Y-84328214D01*
X163214285Y-84185357D01*
X163214285Y-82971071D01*
X162500000Y-84471071D02*
X162500000Y-82971071D01*
X162000000Y-84042500D01*
X161500000Y-82971071D01*
X161500000Y-84471071D01*
X160785714Y-84471071D02*
X160785714Y-82971071D01*
X160214285Y-82971071D01*
X160071428Y-83042500D01*
X160000000Y-83113928D01*
X159928571Y-83256785D01*
X159928571Y-83471071D01*
X160000000Y-83613928D01*
X160071428Y-83685357D01*
X160214285Y-83756785D01*
X160785714Y-83756785D01*
X159285714Y-83685357D02*
X158785714Y-83685357D01*
X158571428Y-84471071D02*
X159285714Y-84471071D01*
X159285714Y-82971071D01*
X158571428Y-82971071D01*
X157071428Y-84471071D02*
X157571428Y-83756785D01*
X157928571Y-84471071D02*
X157928571Y-82971071D01*
X157357142Y-82971071D01*
X157214285Y-83042500D01*
X157142857Y-83113928D01*
X157071428Y-83256785D01*
X157071428Y-83471071D01*
X157142857Y-83613928D01*
X157214285Y-83685357D01*
X157357142Y-83756785D01*
X157928571Y-83756785D01*
X156500000Y-84399642D02*
X156285714Y-84471071D01*
X155928571Y-84471071D01*
X155785714Y-84399642D01*
X155714285Y-84328214D01*
X155642857Y-84185357D01*
X155642857Y-84042500D01*
X155714285Y-83899642D01*
X155785714Y-83828214D01*
X155928571Y-83756785D01*
X156214285Y-83685357D01*
X156357142Y-83613928D01*
X156428571Y-83542500D01*
X156500000Y-83399642D01*
X156500000Y-83256785D01*
X156428571Y-83113928D01*
X156357142Y-83042500D01*
X156214285Y-82971071D01*
X155857142Y-82971071D01*
X155642857Y-83042500D01*
X153857142Y-84471071D02*
X153857142Y-82971071D01*
X152642857Y-83685357D02*
X153142857Y-83685357D01*
X153142857Y-84471071D02*
X153142857Y-82971071D01*
X152428571Y-82971071D01*
X150714285Y-84471071D02*
X150714285Y-82971071D01*
X149857142Y-84471071D01*
X149857142Y-82971071D01*
X148857142Y-82971071D02*
X148571428Y-82971071D01*
X148428571Y-83042500D01*
X148285714Y-83185357D01*
X148214285Y-83471071D01*
X148214285Y-83971071D01*
X148285714Y-84256785D01*
X148428571Y-84399642D01*
X148571428Y-84471071D01*
X148857142Y-84471071D01*
X149000000Y-84399642D01*
X149142857Y-84256785D01*
X149214285Y-83971071D01*
X149214285Y-83471071D01*
X149142857Y-83185357D01*
X149000000Y-83042500D01*
X148857142Y-82971071D01*
X146500000Y-84042500D02*
X145785714Y-84042500D01*
X146642857Y-84471071D02*
X146142857Y-82971071D01*
X145642857Y-84471071D01*
X145142857Y-84471071D02*
X145142857Y-82971071D01*
X144285714Y-84471071D01*
X144285714Y-82971071D01*
X143642857Y-84042500D02*
X142928571Y-84042500D01*
X143785714Y-84471071D02*
X143285714Y-82971071D01*
X142785714Y-84471071D01*
X141571428Y-84471071D02*
X142285714Y-84471071D01*
X142285714Y-82971071D01*
X140785714Y-83756785D02*
X140785714Y-84471071D01*
X141285714Y-82971071D02*
X140785714Y-83756785D01*
X140285714Y-82971071D01*
X139928571Y-82971071D02*
X138928571Y-82971071D01*
X139928571Y-84471071D01*
X138928571Y-84471071D01*
X138357142Y-83685357D02*
X137857142Y-83685357D01*
X137642857Y-84471071D02*
X138357142Y-84471071D01*
X138357142Y-82971071D01*
X137642857Y-82971071D01*
X136142857Y-84471071D02*
X136642857Y-83756785D01*
X137000000Y-84471071D02*
X137000000Y-82971071D01*
X136428571Y-82971071D01*
X136285714Y-83042500D01*
X136214285Y-83113928D01*
X136142857Y-83256785D01*
X136142857Y-83471071D01*
X136214285Y-83613928D01*
X136285714Y-83685357D01*
X136428571Y-83756785D01*
X137000000Y-83756785D01*
X182857142Y-86457500D02*
X182142857Y-86457500D01*
X183000000Y-86886071D02*
X182500000Y-85386071D01*
X182000000Y-86886071D01*
X181500000Y-86886071D02*
X181500000Y-85386071D01*
X180642857Y-86886071D01*
X180642857Y-85386071D01*
X179928571Y-86886071D02*
X179928571Y-85386071D01*
X179571428Y-85386071D01*
X179357142Y-85457500D01*
X179214285Y-85600357D01*
X179142857Y-85743214D01*
X179071428Y-86028928D01*
X179071428Y-86243214D01*
X179142857Y-86528928D01*
X179214285Y-86671785D01*
X179357142Y-86814642D01*
X179571428Y-86886071D01*
X179928571Y-86886071D01*
X177500000Y-85386071D02*
X176642857Y-85386071D01*
X177071428Y-86886071D02*
X177071428Y-85386071D01*
X175857142Y-85386071D02*
X175571428Y-85386071D01*
X175428571Y-85457500D01*
X175285714Y-85600357D01*
X175214285Y-85886071D01*
X175214285Y-86386071D01*
X175285714Y-86671785D01*
X175428571Y-86814642D01*
X175571428Y-86886071D01*
X175857142Y-86886071D01*
X176000000Y-86814642D01*
X176142857Y-86671785D01*
X176214285Y-86386071D01*
X176214285Y-85886071D01*
X176142857Y-85600357D01*
X176000000Y-85457500D01*
X175857142Y-85386071D01*
X174571428Y-86886071D02*
X174571428Y-85386071D01*
X174000000Y-85386071D01*
X173857142Y-85457500D01*
X173785714Y-85528928D01*
X173714285Y-85671785D01*
X173714285Y-85886071D01*
X173785714Y-86028928D01*
X173857142Y-86100357D01*
X174000000Y-86171785D01*
X174571428Y-86171785D01*
X171071428Y-86743214D02*
X171142857Y-86814642D01*
X171357142Y-86886071D01*
X171500000Y-86886071D01*
X171714285Y-86814642D01*
X171857142Y-86671785D01*
X171928571Y-86528928D01*
X172000000Y-86243214D01*
X172000000Y-86028928D01*
X171928571Y-85743214D01*
X171857142Y-85600357D01*
X171714285Y-85457500D01*
X171500000Y-85386071D01*
X171357142Y-85386071D01*
X171142857Y-85457500D01*
X171071428Y-85528928D01*
X170142857Y-85386071D02*
X169857142Y-85386071D01*
X169714285Y-85457500D01*
X169571428Y-85600357D01*
X169500000Y-85886071D01*
X169500000Y-86386071D01*
X169571428Y-86671785D01*
X169714285Y-86814642D01*
X169857142Y-86886071D01*
X170142857Y-86886071D01*
X170285714Y-86814642D01*
X170428571Y-86671785D01*
X170500000Y-86386071D01*
X170500000Y-85886071D01*
X170428571Y-85600357D01*
X170285714Y-85457500D01*
X170142857Y-85386071D01*
X168857142Y-86886071D02*
X168857142Y-85386071D01*
X168357142Y-86457500D01*
X167857142Y-85386071D01*
X167857142Y-86886071D01*
X167142857Y-86886071D02*
X167142857Y-85386071D01*
X166571428Y-85386071D01*
X166428571Y-85457500D01*
X166357142Y-85528928D01*
X166285714Y-85671785D01*
X166285714Y-85886071D01*
X166357142Y-86028928D01*
X166428571Y-86100357D01*
X166571428Y-86171785D01*
X167142857Y-86171785D01*
X165357142Y-85386071D02*
X165071428Y-85386071D01*
X164928571Y-85457500D01*
X164785714Y-85600357D01*
X164714285Y-85886071D01*
X164714285Y-86386071D01*
X164785714Y-86671785D01*
X164928571Y-86814642D01*
X165071428Y-86886071D01*
X165357142Y-86886071D01*
X165500000Y-86814642D01*
X165642857Y-86671785D01*
X165714285Y-86386071D01*
X165714285Y-85886071D01*
X165642857Y-85600357D01*
X165500000Y-85457500D01*
X165357142Y-85386071D01*
X164071428Y-86886071D02*
X164071428Y-85386071D01*
X163214285Y-86886071D01*
X163214285Y-85386071D01*
X162500000Y-86100357D02*
X162000000Y-86100357D01*
X161785714Y-86886071D02*
X162500000Y-86886071D01*
X162500000Y-85386071D01*
X161785714Y-85386071D01*
X161142857Y-86886071D02*
X161142857Y-85386071D01*
X160285714Y-86886071D01*
X160285714Y-85386071D01*
X159785714Y-85386071D02*
X158928571Y-85386071D01*
X159357142Y-86886071D02*
X159357142Y-85386071D01*
X158500000Y-86814642D02*
X158285714Y-86886071D01*
X157928571Y-86886071D01*
X157785714Y-86814642D01*
X157714285Y-86743214D01*
X157642857Y-86600357D01*
X157642857Y-86457500D01*
X157714285Y-86314642D01*
X157785714Y-86243214D01*
X157928571Y-86171785D01*
X158214285Y-86100357D01*
X158357142Y-86028928D01*
X158428571Y-85957500D01*
X158500000Y-85814642D01*
X158500000Y-85671785D01*
X158428571Y-85528928D01*
X158357142Y-85457500D01*
X158214285Y-85386071D01*
X157857142Y-85386071D01*
X157642857Y-85457500D01*
X155928571Y-86457500D02*
X155214285Y-86457500D01*
X156071428Y-86886071D02*
X155571428Y-85386071D01*
X155071428Y-86886071D01*
X153714285Y-86886071D02*
X154214285Y-86171785D01*
X154571428Y-86886071D02*
X154571428Y-85386071D01*
X154000000Y-85386071D01*
X153857142Y-85457500D01*
X153785714Y-85528928D01*
X153714285Y-85671785D01*
X153714285Y-85886071D01*
X153785714Y-86028928D01*
X153857142Y-86100357D01*
X154000000Y-86171785D01*
X154571428Y-86171785D01*
X153071428Y-86100357D02*
X152571428Y-86100357D01*
X152357142Y-86886071D02*
X153071428Y-86886071D01*
X153071428Y-85386071D01*
X152357142Y-85386071D01*
X150571428Y-86886071D02*
X150571428Y-85386071D01*
X149714285Y-86886071D01*
X149714285Y-85386071D01*
X148714285Y-85386071D02*
X148428571Y-85386071D01*
X148285714Y-85457500D01*
X148142857Y-85600357D01*
X148071428Y-85886071D01*
X148071428Y-86386071D01*
X148142857Y-86671785D01*
X148285714Y-86814642D01*
X148428571Y-86886071D01*
X148714285Y-86886071D01*
X148857142Y-86814642D01*
X149000000Y-86671785D01*
X149071428Y-86386071D01*
X149071428Y-85886071D01*
X149000000Y-85600357D01*
X148857142Y-85457500D01*
X148714285Y-85386071D01*
X147642857Y-85386071D02*
X146785714Y-85386071D01*
X147214285Y-86886071D02*
X147214285Y-85386071D01*
X145142857Y-86886071D02*
X145142857Y-85386071D01*
X144571428Y-85386071D01*
X144428571Y-85457500D01*
X144357142Y-85528928D01*
X144285714Y-85671785D01*
X144285714Y-85886071D01*
X144357142Y-86028928D01*
X144428571Y-86100357D01*
X144571428Y-86171785D01*
X145142857Y-86171785D01*
X143357142Y-85386071D02*
X143071428Y-85386071D01*
X142928571Y-85457500D01*
X142785714Y-85600357D01*
X142714285Y-85886071D01*
X142714285Y-86386071D01*
X142785714Y-86671785D01*
X142928571Y-86814642D01*
X143071428Y-86886071D01*
X143357142Y-86886071D01*
X143500000Y-86814642D01*
X143642857Y-86671785D01*
X143714285Y-86386071D01*
X143714285Y-85886071D01*
X143642857Y-85600357D01*
X143500000Y-85457500D01*
X143357142Y-85386071D01*
X142071428Y-86886071D02*
X142071428Y-85386071D01*
X141500000Y-85386071D01*
X141357142Y-85457500D01*
X141285714Y-85528928D01*
X141214285Y-85671785D01*
X141214285Y-85886071D01*
X141285714Y-86028928D01*
X141357142Y-86100357D01*
X141500000Y-86171785D01*
X142071428Y-86171785D01*
X140571428Y-85386071D02*
X140571428Y-86600357D01*
X140500000Y-86743214D01*
X140428571Y-86814642D01*
X140285714Y-86886071D01*
X140000000Y-86886071D01*
X139857142Y-86814642D01*
X139785714Y-86743214D01*
X139714285Y-86600357D01*
X139714285Y-85386071D01*
X138285714Y-86886071D02*
X139000000Y-86886071D01*
X139000000Y-85386071D01*
X137857142Y-86457500D02*
X137142857Y-86457500D01*
X138000000Y-86886071D02*
X137500000Y-85386071D01*
X137000000Y-86886071D01*
X136714285Y-85386071D02*
X135857142Y-85386071D01*
X136285714Y-86886071D02*
X136285714Y-85386071D01*
X135357142Y-86100357D02*
X134857142Y-86100357D01*
X134642857Y-86886071D02*
X135357142Y-86886071D01*
X135357142Y-85386071D01*
X134642857Y-85386071D01*
X134000000Y-86886071D02*
X134000000Y-85386071D01*
X133642857Y-85386071D01*
X133428571Y-85457500D01*
X133285714Y-85600357D01*
X133214285Y-85743214D01*
X133142857Y-86028928D01*
X133142857Y-86243214D01*
X133214285Y-86528928D01*
X133285714Y-86671785D01*
X133428571Y-86814642D01*
X133642857Y-86886071D01*
X134000000Y-86886071D01*
D11*
%TO.C,JP7*%
X173433333Y-97052380D02*
X173433333Y-97766666D01*
X173480952Y-97909523D01*
X173576190Y-98004761D01*
X173719047Y-98052380D01*
X173814285Y-98052380D01*
X172957142Y-98052380D02*
X172957142Y-97052380D01*
X172576190Y-97052380D01*
X172480952Y-97100000D01*
X172433333Y-97147619D01*
X172385714Y-97242857D01*
X172385714Y-97385714D01*
X172433333Y-97480952D01*
X172480952Y-97528571D01*
X172576190Y-97576190D01*
X172957142Y-97576190D01*
X172052380Y-97052380D02*
X171385714Y-97052380D01*
X171814285Y-98052380D01*
%TO.C,JP8*%
X125452380Y-83566666D02*
X126166666Y-83566666D01*
X126309523Y-83519047D01*
X126404761Y-83423809D01*
X126452380Y-83280952D01*
X126452380Y-83185714D01*
X126452380Y-84042857D02*
X125452380Y-84042857D01*
X125452380Y-84423809D01*
X125500000Y-84519047D01*
X125547619Y-84566666D01*
X125642857Y-84614285D01*
X125785714Y-84614285D01*
X125880952Y-84566666D01*
X125928571Y-84519047D01*
X125976190Y-84423809D01*
X125976190Y-84042857D01*
X125880952Y-85185714D02*
X125833333Y-85090476D01*
X125785714Y-85042857D01*
X125690476Y-84995238D01*
X125642857Y-84995238D01*
X125547619Y-85042857D01*
X125500000Y-85090476D01*
X125452380Y-85185714D01*
X125452380Y-85376190D01*
X125500000Y-85471428D01*
X125547619Y-85519047D01*
X125642857Y-85566666D01*
X125690476Y-85566666D01*
X125785714Y-85519047D01*
X125833333Y-85471428D01*
X125880952Y-85376190D01*
X125880952Y-85185714D01*
X125928571Y-85090476D01*
X125976190Y-85042857D01*
X126071428Y-84995238D01*
X126261904Y-84995238D01*
X126357142Y-85042857D01*
X126404761Y-85090476D01*
X126452380Y-85185714D01*
X126452380Y-85376190D01*
X126404761Y-85471428D01*
X126357142Y-85519047D01*
X126261904Y-85566666D01*
X126071428Y-85566666D01*
X125976190Y-85519047D01*
X125928571Y-85471428D01*
X125880952Y-85376190D01*
%TO.C,JP5*%
X136233333Y-101652380D02*
X136233333Y-102366666D01*
X136280952Y-102509523D01*
X136376190Y-102604761D01*
X136519047Y-102652380D01*
X136614285Y-102652380D01*
X135757142Y-102652380D02*
X135757142Y-101652380D01*
X135376190Y-101652380D01*
X135280952Y-101700000D01*
X135233333Y-101747619D01*
X135185714Y-101842857D01*
X135185714Y-101985714D01*
X135233333Y-102080952D01*
X135280952Y-102128571D01*
X135376190Y-102176190D01*
X135757142Y-102176190D01*
X134280952Y-101652380D02*
X134757142Y-101652380D01*
X134804761Y-102128571D01*
X134757142Y-102080952D01*
X134661904Y-102033333D01*
X134423809Y-102033333D01*
X134328571Y-102080952D01*
X134280952Y-102128571D01*
X134233333Y-102223809D01*
X134233333Y-102461904D01*
X134280952Y-102557142D01*
X134328571Y-102604761D01*
X134423809Y-102652380D01*
X134661904Y-102652380D01*
X134757142Y-102604761D01*
X134804761Y-102557142D01*
%TO.C,JP2*%
X178833333Y-97052380D02*
X178833333Y-97766666D01*
X178880952Y-97909523D01*
X178976190Y-98004761D01*
X179119047Y-98052380D01*
X179214285Y-98052380D01*
X178357142Y-98052380D02*
X178357142Y-97052380D01*
X177976190Y-97052380D01*
X177880952Y-97100000D01*
X177833333Y-97147619D01*
X177785714Y-97242857D01*
X177785714Y-97385714D01*
X177833333Y-97480952D01*
X177880952Y-97528571D01*
X177976190Y-97576190D01*
X178357142Y-97576190D01*
X177404761Y-97147619D02*
X177357142Y-97100000D01*
X177261904Y-97052380D01*
X177023809Y-97052380D01*
X176928571Y-97100000D01*
X176880952Y-97147619D01*
X176833333Y-97242857D01*
X176833333Y-97338095D01*
X176880952Y-97480952D01*
X177452380Y-98052380D01*
X176833333Y-98052380D01*
%TO.C,JP4*%
X117333333Y-76252380D02*
X117333333Y-76966666D01*
X117380952Y-77109523D01*
X117476190Y-77204761D01*
X117619047Y-77252380D01*
X117714285Y-77252380D01*
X116857142Y-77252380D02*
X116857142Y-76252380D01*
X116476190Y-76252380D01*
X116380952Y-76300000D01*
X116333333Y-76347619D01*
X116285714Y-76442857D01*
X116285714Y-76585714D01*
X116333333Y-76680952D01*
X116380952Y-76728571D01*
X116476190Y-76776190D01*
X116857142Y-76776190D01*
X115428571Y-76585714D02*
X115428571Y-77252380D01*
X115666666Y-76204761D02*
X115904761Y-76919047D01*
X115285714Y-76919047D01*
%TO.C,JP9*%
X136033333Y-77052380D02*
X136033333Y-77766666D01*
X136080952Y-77909523D01*
X136176190Y-78004761D01*
X136319047Y-78052380D01*
X136414285Y-78052380D01*
X135557142Y-78052380D02*
X135557142Y-77052380D01*
X135176190Y-77052380D01*
X135080952Y-77100000D01*
X135033333Y-77147619D01*
X134985714Y-77242857D01*
X134985714Y-77385714D01*
X135033333Y-77480952D01*
X135080952Y-77528571D01*
X135176190Y-77576190D01*
X135557142Y-77576190D01*
X134509523Y-78052380D02*
X134319047Y-78052380D01*
X134223809Y-78004761D01*
X134176190Y-77957142D01*
X134080952Y-77814285D01*
X134033333Y-77623809D01*
X134033333Y-77242857D01*
X134080952Y-77147619D01*
X134128571Y-77100000D01*
X134223809Y-77052380D01*
X134414285Y-77052380D01*
X134509523Y-77100000D01*
X134557142Y-77147619D01*
X134604761Y-77242857D01*
X134604761Y-77480952D01*
X134557142Y-77576190D01*
X134509523Y-77623809D01*
X134414285Y-77671428D01*
X134223809Y-77671428D01*
X134128571Y-77623809D01*
X134080952Y-77576190D01*
X134033333Y-77480952D01*
%TO.C,JP6*%
X168708333Y-97052380D02*
X168708333Y-97766666D01*
X168755952Y-97909523D01*
X168851190Y-98004761D01*
X168994047Y-98052380D01*
X169089285Y-98052380D01*
X168232142Y-98052380D02*
X168232142Y-97052380D01*
X167851190Y-97052380D01*
X167755952Y-97100000D01*
X167708333Y-97147619D01*
X167660714Y-97242857D01*
X167660714Y-97385714D01*
X167708333Y-97480952D01*
X167755952Y-97528571D01*
X167851190Y-97576190D01*
X168232142Y-97576190D01*
X166803571Y-97052380D02*
X166994047Y-97052380D01*
X167089285Y-97100000D01*
X167136904Y-97147619D01*
X167232142Y-97290476D01*
X167279761Y-97480952D01*
X167279761Y-97861904D01*
X167232142Y-97957142D01*
X167184523Y-98004761D01*
X167089285Y-98052380D01*
X166898809Y-98052380D01*
X166803571Y-98004761D01*
X166755952Y-97957142D01*
X166708333Y-97861904D01*
X166708333Y-97623809D01*
X166755952Y-97528571D01*
X166803571Y-97480952D01*
X166898809Y-97433333D01*
X167089285Y-97433333D01*
X167184523Y-97480952D01*
X167232142Y-97528571D01*
X167279761Y-97623809D01*
%TO.C,JP3*%
X176033333Y-88652380D02*
X176033333Y-89366666D01*
X176080952Y-89509523D01*
X176176190Y-89604761D01*
X176319047Y-89652380D01*
X176414285Y-89652380D01*
X175557142Y-89652380D02*
X175557142Y-88652380D01*
X175176190Y-88652380D01*
X175080952Y-88700000D01*
X175033333Y-88747619D01*
X174985714Y-88842857D01*
X174985714Y-88985714D01*
X175033333Y-89080952D01*
X175080952Y-89128571D01*
X175176190Y-89176190D01*
X175557142Y-89176190D01*
X174652380Y-88652380D02*
X174033333Y-88652380D01*
X174366666Y-89033333D01*
X174223809Y-89033333D01*
X174128571Y-89080952D01*
X174080952Y-89128571D01*
X174033333Y-89223809D01*
X174033333Y-89461904D01*
X174080952Y-89557142D01*
X174128571Y-89604761D01*
X174223809Y-89652380D01*
X174509523Y-89652380D01*
X174604761Y-89604761D01*
X174652380Y-89557142D01*
%TO.C,JP1*%
X157633333Y-95852380D02*
X157633333Y-96566666D01*
X157680952Y-96709523D01*
X157776190Y-96804761D01*
X157919047Y-96852380D01*
X158014285Y-96852380D01*
X157157142Y-96852380D02*
X157157142Y-95852380D01*
X156776190Y-95852380D01*
X156680952Y-95900000D01*
X156633333Y-95947619D01*
X156585714Y-96042857D01*
X156585714Y-96185714D01*
X156633333Y-96280952D01*
X156680952Y-96328571D01*
X156776190Y-96376190D01*
X157157142Y-96376190D01*
X155633333Y-96852380D02*
X156204761Y-96852380D01*
X155919047Y-96852380D02*
X155919047Y-95852380D01*
X156014285Y-95995238D01*
X156109523Y-96090476D01*
X156204761Y-96138095D01*
D12*
%TO.C,JP7*%
X174000000Y-98400000D02*
X171200000Y-98400000D01*
X174000000Y-100400000D02*
X174000000Y-98400000D01*
X171200000Y-98400000D02*
X171200000Y-100400000D01*
X171200000Y-100400000D02*
X174000000Y-100400000D01*
%TO.C,JP8*%
X128800000Y-85800000D02*
X128800000Y-83000000D01*
X128800000Y-83000000D02*
X126800000Y-83000000D01*
X126800000Y-83000000D02*
X126800000Y-85800000D01*
X126800000Y-85800000D02*
X128800000Y-85800000D01*
%TO.C,JP5*%
X136800000Y-101400000D02*
X136800000Y-99400000D01*
X136800000Y-99400000D02*
X134000000Y-99400000D01*
X134000000Y-99400000D02*
X134000000Y-101400000D01*
X134000000Y-101400000D02*
X136800000Y-101400000D01*
%TO.C,JP2*%
X176600000Y-98400000D02*
X176600000Y-100400000D01*
X179400000Y-100400000D02*
X179400000Y-98400000D01*
X176600000Y-100400000D02*
X179400000Y-100400000D01*
X179400000Y-98400000D02*
X176600000Y-98400000D01*
%TO.C,JP4*%
X115100000Y-74000000D02*
X115100000Y-76000000D01*
X115100000Y-76000000D02*
X117900000Y-76000000D01*
X117900000Y-76000000D02*
X117900000Y-74000000D01*
X117900000Y-74000000D02*
X115100000Y-74000000D01*
%TO.C,JP9*%
X136600000Y-80400000D02*
X136600000Y-78400000D01*
X136600000Y-78400000D02*
X133800000Y-78400000D01*
X133800000Y-78400000D02*
X133800000Y-80400000D01*
X133800000Y-80400000D02*
X136600000Y-80400000D01*
%TO.C,JP6*%
X166475000Y-98400000D02*
X166475000Y-100400000D01*
X166475000Y-100400000D02*
X169275000Y-100400000D01*
X169275000Y-98400000D02*
X166475000Y-98400000D01*
X169275000Y-100400000D02*
X169275000Y-98400000D01*
%TO.C,JP3*%
X173800000Y-92000000D02*
X176600000Y-92000000D01*
X176600000Y-92000000D02*
X176600000Y-90000000D01*
X176600000Y-90000000D02*
X173800000Y-90000000D01*
X173800000Y-90000000D02*
X173800000Y-92000000D01*
%TO.C,JP1*%
X158200000Y-97200000D02*
X155400000Y-97200000D01*
X155400000Y-99200000D02*
X158200000Y-99200000D01*
X158200000Y-99200000D02*
X158200000Y-97200000D01*
X155400000Y-97200000D02*
X155400000Y-99200000D01*
%TD*%
M02*
