%TF.GenerationSoftware,KiCad,Pcbnew,(6.0.7)*%
%TF.CreationDate,2023-11-21T21:52:02-06:00*%
%TF.ProjectId,Male ECU Connector,4d616c65-2045-4435-9520-436f6e6e6563,rev?*%
%TF.SameCoordinates,Original*%
%TF.FileFunction,Legend,Top*%
%TF.FilePolarity,Positive*%
%FSLAX46Y46*%
G04 Gerber Fmt 4.6, Leading zero omitted, Abs format (unit mm)*
G04 Created by KiCad (PCBNEW (6.0.7)) date 2023-11-21 21:52:02*
%MOMM*%
%LPD*%
G01*
G04 APERTURE LIST*
%ADD10C,0.200000*%
%ADD11C,0.150000*%
%ADD12C,0.120000*%
%ADD13C,2.000000*%
G04 APERTURE END LIST*
D10*
X112500000Y-90678571D02*
X113357142Y-90678571D01*
X112928571Y-92178571D02*
X112928571Y-90678571D01*
X114142857Y-90678571D02*
X114428571Y-90678571D01*
X114571428Y-90750000D01*
X114714285Y-90892857D01*
X114785714Y-91178571D01*
X114785714Y-91678571D01*
X114714285Y-91964285D01*
X114571428Y-92107142D01*
X114428571Y-92178571D01*
X114142857Y-92178571D01*
X114000000Y-92107142D01*
X113857142Y-91964285D01*
X113785714Y-91678571D01*
X113785714Y-91178571D01*
X113857142Y-90892857D01*
X114000000Y-90750000D01*
X114142857Y-90678571D01*
X116571428Y-91392857D02*
X117071428Y-91392857D01*
X117285714Y-92178571D02*
X116571428Y-92178571D01*
X116571428Y-90678571D01*
X117285714Y-90678571D01*
X118785714Y-92035714D02*
X118714285Y-92107142D01*
X118500000Y-92178571D01*
X118357142Y-92178571D01*
X118142857Y-92107142D01*
X118000000Y-91964285D01*
X117928571Y-91821428D01*
X117857142Y-91535714D01*
X117857142Y-91321428D01*
X117928571Y-91035714D01*
X118000000Y-90892857D01*
X118142857Y-90750000D01*
X118357142Y-90678571D01*
X118500000Y-90678571D01*
X118714285Y-90750000D01*
X118785714Y-90821428D01*
X119428571Y-90678571D02*
X119428571Y-91892857D01*
X119500000Y-92035714D01*
X119571428Y-92107142D01*
X119714285Y-92178571D01*
X120000000Y-92178571D01*
X120142857Y-92107142D01*
X120214285Y-92035714D01*
X120285714Y-91892857D01*
X120285714Y-90678571D01*
X123142857Y-98971071D02*
X123142857Y-97471071D01*
X123500000Y-97471071D01*
X123714285Y-97542500D01*
X123857142Y-97685357D01*
X123928571Y-97828214D01*
X124000000Y-98113928D01*
X124000000Y-98328214D01*
X123928571Y-98613928D01*
X123857142Y-98756785D01*
X123714285Y-98899642D01*
X123500000Y-98971071D01*
X123142857Y-98971071D01*
X124642857Y-98399642D02*
X125785714Y-98399642D01*
X126928571Y-97471071D02*
X126928571Y-98542500D01*
X126857142Y-98756785D01*
X126714285Y-98899642D01*
X126500000Y-98971071D01*
X126357142Y-98971071D01*
X127642857Y-98185357D02*
X128142857Y-98185357D01*
X128357142Y-98971071D02*
X127642857Y-98971071D01*
X127642857Y-97471071D01*
X128357142Y-97471071D01*
X128785714Y-97471071D02*
X129642857Y-97471071D01*
X129214285Y-98971071D02*
X129214285Y-97471071D01*
X131000000Y-98971071D02*
X130500000Y-98256785D01*
X130142857Y-98971071D02*
X130142857Y-97471071D01*
X130714285Y-97471071D01*
X130857142Y-97542500D01*
X130928571Y-97613928D01*
X131000000Y-97756785D01*
X131000000Y-97971071D01*
X130928571Y-98113928D01*
X130857142Y-98185357D01*
X130714285Y-98256785D01*
X130142857Y-98256785D01*
X131928571Y-97471071D02*
X132214285Y-97471071D01*
X132357142Y-97542500D01*
X132500000Y-97685357D01*
X132571428Y-97971071D01*
X132571428Y-98471071D01*
X132500000Y-98756785D01*
X132357142Y-98899642D01*
X132214285Y-98971071D01*
X131928571Y-98971071D01*
X131785714Y-98899642D01*
X131642857Y-98756785D01*
X131571428Y-98471071D01*
X131571428Y-97971071D01*
X131642857Y-97685357D01*
X131785714Y-97542500D01*
X131928571Y-97471071D01*
X133214285Y-98971071D02*
X133214285Y-97471071D01*
X134071428Y-98971071D01*
X134071428Y-97471071D01*
X134785714Y-98971071D02*
X134785714Y-97471071D01*
X136357142Y-98828214D02*
X136285714Y-98899642D01*
X136071428Y-98971071D01*
X135928571Y-98971071D01*
X135714285Y-98899642D01*
X135571428Y-98756785D01*
X135500000Y-98613928D01*
X135428571Y-98328214D01*
X135428571Y-98113928D01*
X135500000Y-97828214D01*
X135571428Y-97685357D01*
X135714285Y-97542500D01*
X135928571Y-97471071D01*
X136071428Y-97471071D01*
X136285714Y-97542500D01*
X136357142Y-97613928D01*
X138142857Y-98185357D02*
X138642857Y-98185357D01*
X138857142Y-98971071D02*
X138142857Y-98971071D01*
X138142857Y-97471071D01*
X138857142Y-97471071D01*
X140357142Y-98828214D02*
X140285714Y-98899642D01*
X140071428Y-98971071D01*
X139928571Y-98971071D01*
X139714285Y-98899642D01*
X139571428Y-98756785D01*
X139500000Y-98613928D01*
X139428571Y-98328214D01*
X139428571Y-98113928D01*
X139500000Y-97828214D01*
X139571428Y-97685357D01*
X139714285Y-97542500D01*
X139928571Y-97471071D01*
X140071428Y-97471071D01*
X140285714Y-97542500D01*
X140357142Y-97613928D01*
X141000000Y-97471071D02*
X141000000Y-98685357D01*
X141071428Y-98828214D01*
X141142857Y-98899642D01*
X141285714Y-98971071D01*
X141571428Y-98971071D01*
X141714285Y-98899642D01*
X141785714Y-98828214D01*
X141857142Y-98685357D01*
X141857142Y-97471071D01*
X143714285Y-98971071D02*
X143714285Y-97471071D01*
X144214285Y-98542500D01*
X144714285Y-97471071D01*
X144714285Y-98971071D01*
X145357142Y-98542500D02*
X146071428Y-98542500D01*
X145214285Y-98971071D02*
X145714285Y-97471071D01*
X146214285Y-98971071D01*
X147428571Y-98971071D02*
X146714285Y-98971071D01*
X146714285Y-97471071D01*
X147928571Y-98185357D02*
X148428571Y-98185357D01*
X148642857Y-98971071D02*
X147928571Y-98971071D01*
X147928571Y-97471071D01*
X148642857Y-97471071D01*
X150428571Y-98185357D02*
X150928571Y-98185357D01*
X151142857Y-98971071D02*
X150428571Y-98971071D01*
X150428571Y-97471071D01*
X151142857Y-97471071D01*
X151785714Y-98971071D02*
X151785714Y-97471071D01*
X152142857Y-97471071D01*
X152357142Y-97542500D01*
X152500000Y-97685357D01*
X152571428Y-97828214D01*
X152642857Y-98113928D01*
X152642857Y-98328214D01*
X152571428Y-98613928D01*
X152500000Y-98756785D01*
X152357142Y-98899642D01*
X152142857Y-98971071D01*
X151785714Y-98971071D01*
X154071428Y-97542500D02*
X153928571Y-97471071D01*
X153714285Y-97471071D01*
X153500000Y-97542500D01*
X153357142Y-97685357D01*
X153285714Y-97828214D01*
X153214285Y-98113928D01*
X153214285Y-98328214D01*
X153285714Y-98613928D01*
X153357142Y-98756785D01*
X153500000Y-98899642D01*
X153714285Y-98971071D01*
X153857142Y-98971071D01*
X154071428Y-98899642D01*
X154142857Y-98828214D01*
X154142857Y-98328214D01*
X153857142Y-98328214D01*
X154785714Y-98185357D02*
X155285714Y-98185357D01*
X155500000Y-98971071D02*
X154785714Y-98971071D01*
X154785714Y-97471071D01*
X155500000Y-97471071D01*
X158142857Y-98828214D02*
X158071428Y-98899642D01*
X157857142Y-98971071D01*
X157714285Y-98971071D01*
X157500000Y-98899642D01*
X157357142Y-98756785D01*
X157285714Y-98613928D01*
X157214285Y-98328214D01*
X157214285Y-98113928D01*
X157285714Y-97828214D01*
X157357142Y-97685357D01*
X157500000Y-97542500D01*
X157714285Y-97471071D01*
X157857142Y-97471071D01*
X158071428Y-97542500D01*
X158142857Y-97613928D01*
X159071428Y-97471071D02*
X159357142Y-97471071D01*
X159500000Y-97542500D01*
X159642857Y-97685357D01*
X159714285Y-97971071D01*
X159714285Y-98471071D01*
X159642857Y-98756785D01*
X159500000Y-98899642D01*
X159357142Y-98971071D01*
X159071428Y-98971071D01*
X158928571Y-98899642D01*
X158785714Y-98756785D01*
X158714285Y-98471071D01*
X158714285Y-97971071D01*
X158785714Y-97685357D01*
X158928571Y-97542500D01*
X159071428Y-97471071D01*
X160357142Y-98971071D02*
X160357142Y-97471071D01*
X161214285Y-98971071D01*
X161214285Y-97471071D01*
X161928571Y-98971071D02*
X161928571Y-97471071D01*
X162785714Y-98971071D01*
X162785714Y-97471071D01*
X163500000Y-98185357D02*
X164000000Y-98185357D01*
X164214285Y-98971071D02*
X163500000Y-98971071D01*
X163500000Y-97471071D01*
X164214285Y-97471071D01*
X165714285Y-98828214D02*
X165642857Y-98899642D01*
X165428571Y-98971071D01*
X165285714Y-98971071D01*
X165071428Y-98899642D01*
X164928571Y-98756785D01*
X164857142Y-98613928D01*
X164785714Y-98328214D01*
X164785714Y-98113928D01*
X164857142Y-97828214D01*
X164928571Y-97685357D01*
X165071428Y-97542500D01*
X165285714Y-97471071D01*
X165428571Y-97471071D01*
X165642857Y-97542500D01*
X165714285Y-97613928D01*
X166142857Y-97471071D02*
X167000000Y-97471071D01*
X166571428Y-98971071D02*
X166571428Y-97471071D01*
X167785714Y-97471071D02*
X168071428Y-97471071D01*
X168214285Y-97542500D01*
X168357142Y-97685357D01*
X168428571Y-97971071D01*
X168428571Y-98471071D01*
X168357142Y-98756785D01*
X168214285Y-98899642D01*
X168071428Y-98971071D01*
X167785714Y-98971071D01*
X167642857Y-98899642D01*
X167500000Y-98756785D01*
X167428571Y-98471071D01*
X167428571Y-97971071D01*
X167500000Y-97685357D01*
X167642857Y-97542500D01*
X167785714Y-97471071D01*
X169928571Y-98971071D02*
X169428571Y-98256785D01*
X169071428Y-98971071D02*
X169071428Y-97471071D01*
X169642857Y-97471071D01*
X169785714Y-97542500D01*
X169857142Y-97613928D01*
X169928571Y-97756785D01*
X169928571Y-97971071D01*
X169857142Y-98113928D01*
X169785714Y-98185357D01*
X169642857Y-98256785D01*
X169071428Y-98256785D01*
X171500000Y-97471071D02*
X172000000Y-98971071D01*
X172500000Y-97471071D01*
X173785714Y-98971071D02*
X172928571Y-98971071D01*
X173357142Y-98971071D02*
X173357142Y-97471071D01*
X173214285Y-97685357D01*
X173071428Y-97828214D01*
X172928571Y-97899642D01*
X174428571Y-98828214D02*
X174500000Y-98899642D01*
X174428571Y-98971071D01*
X174357142Y-98899642D01*
X174428571Y-98828214D01*
X174428571Y-98971071D01*
X175928571Y-98971071D02*
X175071428Y-98971071D01*
X175500000Y-98971071D02*
X175500000Y-97471071D01*
X175357142Y-97685357D01*
X175214285Y-97828214D01*
X175071428Y-97899642D01*
X121250000Y-101957500D02*
X121178571Y-101886071D01*
X121035714Y-101671785D01*
X120964285Y-101528928D01*
X120892857Y-101314642D01*
X120821428Y-100957500D01*
X120821428Y-100671785D01*
X120892857Y-100314642D01*
X120964285Y-100100357D01*
X121035714Y-99957500D01*
X121178571Y-99743214D01*
X121250000Y-99671785D01*
X122678571Y-101243214D02*
X122607142Y-101314642D01*
X122392857Y-101386071D01*
X122250000Y-101386071D01*
X122035714Y-101314642D01*
X121892857Y-101171785D01*
X121821428Y-101028928D01*
X121750000Y-100743214D01*
X121750000Y-100528928D01*
X121821428Y-100243214D01*
X121892857Y-100100357D01*
X122035714Y-99957500D01*
X122250000Y-99886071D01*
X122392857Y-99886071D01*
X122607142Y-99957500D01*
X122678571Y-100028928D01*
X123178571Y-101957500D02*
X123250000Y-101886071D01*
X123392857Y-101671785D01*
X123464285Y-101528928D01*
X123535714Y-101314642D01*
X123607142Y-100957500D01*
X123607142Y-100671785D01*
X123535714Y-100314642D01*
X123464285Y-100100357D01*
X123392857Y-99957500D01*
X123250000Y-99743214D01*
X123178571Y-99671785D01*
X125464285Y-101386071D02*
X125464285Y-99886071D01*
X125821428Y-99886071D01*
X126035714Y-99957500D01*
X126178571Y-100100357D01*
X126250000Y-100243214D01*
X126321428Y-100528928D01*
X126321428Y-100743214D01*
X126250000Y-101028928D01*
X126178571Y-101171785D01*
X126035714Y-101314642D01*
X125821428Y-101386071D01*
X125464285Y-101386071D01*
X127392857Y-99886071D02*
X127392857Y-100957500D01*
X127321428Y-101171785D01*
X127178571Y-101314642D01*
X126964285Y-101386071D01*
X126821428Y-101386071D01*
X128107142Y-100600357D02*
X128607142Y-100600357D01*
X128821428Y-101386071D02*
X128107142Y-101386071D01*
X128107142Y-99886071D01*
X128821428Y-99886071D01*
X129250000Y-99886071D02*
X130107142Y-99886071D01*
X129678571Y-101386071D02*
X129678571Y-99886071D01*
X131464285Y-101386071D02*
X130964285Y-100671785D01*
X130607142Y-101386071D02*
X130607142Y-99886071D01*
X131178571Y-99886071D01*
X131321428Y-99957500D01*
X131392857Y-100028928D01*
X131464285Y-100171785D01*
X131464285Y-100386071D01*
X131392857Y-100528928D01*
X131321428Y-100600357D01*
X131178571Y-100671785D01*
X130607142Y-100671785D01*
X132392857Y-99886071D02*
X132678571Y-99886071D01*
X132821428Y-99957500D01*
X132964285Y-100100357D01*
X133035714Y-100386071D01*
X133035714Y-100886071D01*
X132964285Y-101171785D01*
X132821428Y-101314642D01*
X132678571Y-101386071D01*
X132392857Y-101386071D01*
X132250000Y-101314642D01*
X132107142Y-101171785D01*
X132035714Y-100886071D01*
X132035714Y-100386071D01*
X132107142Y-100100357D01*
X132250000Y-99957500D01*
X132392857Y-99886071D01*
X133678571Y-101386071D02*
X133678571Y-99886071D01*
X134535714Y-101386071D01*
X134535714Y-99886071D01*
X135250000Y-101386071D02*
X135250000Y-99886071D01*
X136821428Y-101243214D02*
X136750000Y-101314642D01*
X136535714Y-101386071D01*
X136392857Y-101386071D01*
X136178571Y-101314642D01*
X136035714Y-101171785D01*
X135964285Y-101028928D01*
X135892857Y-100743214D01*
X135892857Y-100528928D01*
X135964285Y-100243214D01*
X136035714Y-100100357D01*
X136178571Y-99957500D01*
X136392857Y-99886071D01*
X136535714Y-99886071D01*
X136750000Y-99957500D01*
X136821428Y-100028928D01*
X137464285Y-101243214D02*
X137535714Y-101314642D01*
X137464285Y-101386071D01*
X137392857Y-101314642D01*
X137464285Y-101243214D01*
X137464285Y-101386071D01*
X138464285Y-99886071D02*
X138750000Y-99886071D01*
X138892857Y-99957500D01*
X139035714Y-100100357D01*
X139107142Y-100386071D01*
X139107142Y-100886071D01*
X139035714Y-101171785D01*
X138892857Y-101314642D01*
X138750000Y-101386071D01*
X138464285Y-101386071D01*
X138321428Y-101314642D01*
X138178571Y-101171785D01*
X138107142Y-100886071D01*
X138107142Y-100386071D01*
X138178571Y-100100357D01*
X138321428Y-99957500D01*
X138464285Y-99886071D01*
X140607142Y-101386071D02*
X140107142Y-100671785D01*
X139750000Y-101386071D02*
X139750000Y-99886071D01*
X140321428Y-99886071D01*
X140464285Y-99957500D01*
X140535714Y-100028928D01*
X140607142Y-100171785D01*
X140607142Y-100386071D01*
X140535714Y-100528928D01*
X140464285Y-100600357D01*
X140321428Y-100671785D01*
X139750000Y-100671785D01*
X142035714Y-99957500D02*
X141892857Y-99886071D01*
X141678571Y-99886071D01*
X141464285Y-99957500D01*
X141321428Y-100100357D01*
X141250000Y-100243214D01*
X141178571Y-100528928D01*
X141178571Y-100743214D01*
X141250000Y-101028928D01*
X141321428Y-101171785D01*
X141464285Y-101314642D01*
X141678571Y-101386071D01*
X141821428Y-101386071D01*
X142035714Y-101314642D01*
X142107142Y-101243214D01*
X142107142Y-100743214D01*
X141821428Y-100743214D01*
X143821428Y-100028928D02*
X143892857Y-99957500D01*
X144035714Y-99886071D01*
X144392857Y-99886071D01*
X144535714Y-99957500D01*
X144607142Y-100028928D01*
X144678571Y-100171785D01*
X144678571Y-100314642D01*
X144607142Y-100528928D01*
X143750000Y-101386071D01*
X144678571Y-101386071D01*
X145607142Y-99886071D02*
X145750000Y-99886071D01*
X145892857Y-99957500D01*
X145964285Y-100028928D01*
X146035714Y-100171785D01*
X146107142Y-100457500D01*
X146107142Y-100814642D01*
X146035714Y-101100357D01*
X145964285Y-101243214D01*
X145892857Y-101314642D01*
X145750000Y-101386071D01*
X145607142Y-101386071D01*
X145464285Y-101314642D01*
X145392857Y-101243214D01*
X145321428Y-101100357D01*
X145250000Y-100814642D01*
X145250000Y-100457500D01*
X145321428Y-100171785D01*
X145392857Y-100028928D01*
X145464285Y-99957500D01*
X145607142Y-99886071D01*
X146678571Y-100028928D02*
X146750000Y-99957500D01*
X146892857Y-99886071D01*
X147250000Y-99886071D01*
X147392857Y-99957500D01*
X147464285Y-100028928D01*
X147535714Y-100171785D01*
X147535714Y-100314642D01*
X147464285Y-100528928D01*
X146607142Y-101386071D01*
X147535714Y-101386071D01*
X148035714Y-99886071D02*
X148964285Y-99886071D01*
X148464285Y-100457500D01*
X148678571Y-100457500D01*
X148821428Y-100528928D01*
X148892857Y-100600357D01*
X148964285Y-100743214D01*
X148964285Y-101100357D01*
X148892857Y-101243214D01*
X148821428Y-101314642D01*
X148678571Y-101386071D01*
X148250000Y-101386071D01*
X148107142Y-101314642D01*
X148035714Y-101243214D01*
X151107142Y-101886071D02*
X151107142Y-99743214D01*
X153964285Y-101386071D02*
X153964285Y-100600357D01*
X153892857Y-100457500D01*
X153750000Y-100386071D01*
X153464285Y-100386071D01*
X153321428Y-100457500D01*
X153964285Y-101314642D02*
X153821428Y-101386071D01*
X153464285Y-101386071D01*
X153321428Y-101314642D01*
X153250000Y-101171785D01*
X153250000Y-101028928D01*
X153321428Y-100886071D01*
X153464285Y-100814642D01*
X153821428Y-100814642D01*
X153964285Y-100743214D01*
X154678571Y-100386071D02*
X154678571Y-101386071D01*
X154678571Y-100528928D02*
X154750000Y-100457500D01*
X154892857Y-100386071D01*
X155107142Y-100386071D01*
X155250000Y-100457500D01*
X155321428Y-100600357D01*
X155321428Y-101386071D01*
X156678571Y-101386071D02*
X156678571Y-99886071D01*
X156678571Y-101314642D02*
X156535714Y-101386071D01*
X156250000Y-101386071D01*
X156107142Y-101314642D01*
X156035714Y-101243214D01*
X155964285Y-101100357D01*
X155964285Y-100671785D01*
X156035714Y-100528928D01*
X156107142Y-100457500D01*
X156250000Y-100386071D01*
X156535714Y-100386071D01*
X156678571Y-100457500D01*
X157250000Y-100386071D02*
X157607142Y-101386071D01*
X157964285Y-100386071D02*
X157607142Y-101386071D01*
X157464285Y-101743214D01*
X157392857Y-101814642D01*
X157250000Y-101886071D01*
X159464285Y-100671785D02*
X159392857Y-100600357D01*
X159250000Y-100528928D01*
X159107142Y-100528928D01*
X158964285Y-100600357D01*
X158892857Y-100671785D01*
X158821428Y-100814642D01*
X158821428Y-100957500D01*
X158892857Y-101100357D01*
X158964285Y-101171785D01*
X159107142Y-101243214D01*
X159250000Y-101243214D01*
X159392857Y-101171785D01*
X159464285Y-101100357D01*
X159464285Y-100528928D02*
X159464285Y-101100357D01*
X159535714Y-101171785D01*
X159607142Y-101171785D01*
X159750000Y-101100357D01*
X159821428Y-100957500D01*
X159821428Y-100600357D01*
X159678571Y-100386071D01*
X159464285Y-100243214D01*
X159178571Y-100171785D01*
X158892857Y-100243214D01*
X158678571Y-100386071D01*
X158535714Y-100600357D01*
X158464285Y-100886071D01*
X158535714Y-101171785D01*
X158678571Y-101386071D01*
X158892857Y-101528928D01*
X159178571Y-101600357D01*
X159464285Y-101528928D01*
X159678571Y-101386071D01*
X160464285Y-101386071D02*
X160464285Y-99886071D01*
X160464285Y-100457500D02*
X160607142Y-100386071D01*
X160892857Y-100386071D01*
X161035714Y-100457500D01*
X161107142Y-100528928D01*
X161178571Y-100671785D01*
X161178571Y-101100357D01*
X161107142Y-101243214D01*
X161035714Y-101314642D01*
X160892857Y-101386071D01*
X160607142Y-101386071D01*
X160464285Y-101314642D01*
X161821428Y-101386071D02*
X161821428Y-100386071D01*
X161821428Y-100671785D02*
X161892857Y-100528928D01*
X161964285Y-100457500D01*
X162107142Y-100386071D01*
X162250000Y-100386071D01*
X162750000Y-101386071D02*
X162750000Y-100386071D01*
X162750000Y-99886071D02*
X162678571Y-99957500D01*
X162750000Y-100028928D01*
X162821428Y-99957500D01*
X162750000Y-99886071D01*
X162750000Y-100028928D01*
X163250000Y-100386071D02*
X163821428Y-100386071D01*
X163464285Y-99886071D02*
X163464285Y-101171785D01*
X163535714Y-101314642D01*
X163678571Y-101386071D01*
X163821428Y-101386071D01*
X164321428Y-101386071D02*
X164321428Y-100386071D01*
X164321428Y-99886071D02*
X164250000Y-99957500D01*
X164321428Y-100028928D01*
X164392857Y-99957500D01*
X164321428Y-99886071D01*
X164321428Y-100028928D01*
X164964285Y-101314642D02*
X165107142Y-101386071D01*
X165392857Y-101386071D01*
X165535714Y-101314642D01*
X165607142Y-101171785D01*
X165607142Y-101100357D01*
X165535714Y-100957500D01*
X165392857Y-100886071D01*
X165178571Y-100886071D01*
X165035714Y-100814642D01*
X164964285Y-100671785D01*
X164964285Y-100600357D01*
X165035714Y-100457500D01*
X165178571Y-100386071D01*
X165392857Y-100386071D01*
X165535714Y-100457500D01*
X166250000Y-101386071D02*
X166250000Y-99886071D01*
X166892857Y-101386071D02*
X166892857Y-100600357D01*
X166821428Y-100457500D01*
X166678571Y-100386071D01*
X166464285Y-100386071D01*
X166321428Y-100457500D01*
X166250000Y-100528928D01*
X167607142Y-101386071D02*
X167607142Y-100386071D01*
X167607142Y-99886071D02*
X167535714Y-99957500D01*
X167607142Y-100028928D01*
X167678571Y-99957500D01*
X167607142Y-99886071D01*
X167607142Y-100028928D01*
X168964285Y-101386071D02*
X168964285Y-99886071D01*
X168964285Y-101314642D02*
X168821428Y-101386071D01*
X168535714Y-101386071D01*
X168392857Y-101314642D01*
X168321428Y-101243214D01*
X168250000Y-101100357D01*
X168250000Y-100671785D01*
X168321428Y-100528928D01*
X168392857Y-100457500D01*
X168535714Y-100386071D01*
X168821428Y-100386071D01*
X168964285Y-100457500D01*
X170250000Y-101314642D02*
X170107142Y-101386071D01*
X169821428Y-101386071D01*
X169678571Y-101314642D01*
X169607142Y-101171785D01*
X169607142Y-100600357D01*
X169678571Y-100457500D01*
X169821428Y-100386071D01*
X170107142Y-100386071D01*
X170250000Y-100457500D01*
X170321428Y-100600357D01*
X170321428Y-100743214D01*
X169607142Y-100886071D01*
X171607142Y-101386071D02*
X171607142Y-100600357D01*
X171535714Y-100457500D01*
X171392857Y-100386071D01*
X171107142Y-100386071D01*
X170964285Y-100457500D01*
X171607142Y-101314642D02*
X171464285Y-101386071D01*
X171107142Y-101386071D01*
X170964285Y-101314642D01*
X170892857Y-101171785D01*
X170892857Y-101028928D01*
X170964285Y-100886071D01*
X171107142Y-100814642D01*
X171464285Y-100814642D01*
X171607142Y-100743214D01*
X172250000Y-101314642D02*
X172392857Y-101386071D01*
X172678571Y-101386071D01*
X172821428Y-101314642D01*
X172892857Y-101171785D01*
X172892857Y-101100357D01*
X172821428Y-100957500D01*
X172678571Y-100886071D01*
X172464285Y-100886071D01*
X172321428Y-100814642D01*
X172250000Y-100671785D01*
X172250000Y-100600357D01*
X172321428Y-100457500D01*
X172464285Y-100386071D01*
X172678571Y-100386071D01*
X172821428Y-100457500D01*
X173535714Y-101243214D02*
X173607142Y-101314642D01*
X173535714Y-101386071D01*
X173464285Y-101314642D01*
X173535714Y-101243214D01*
X173535714Y-101386071D01*
X174892857Y-101314642D02*
X174750000Y-101386071D01*
X174464285Y-101386071D01*
X174321428Y-101314642D01*
X174250000Y-101243214D01*
X174178571Y-101100357D01*
X174178571Y-100671785D01*
X174250000Y-100528928D01*
X174321428Y-100457500D01*
X174464285Y-100386071D01*
X174750000Y-100386071D01*
X174892857Y-100457500D01*
X175750000Y-101386071D02*
X175607142Y-101314642D01*
X175535714Y-101243214D01*
X175464285Y-101100357D01*
X175464285Y-100671785D01*
X175535714Y-100528928D01*
X175607142Y-100457500D01*
X175750000Y-100386071D01*
X175964285Y-100386071D01*
X176107142Y-100457500D01*
X176178571Y-100528928D01*
X176250000Y-100671785D01*
X176250000Y-101100357D01*
X176178571Y-101243214D01*
X176107142Y-101314642D01*
X175964285Y-101386071D01*
X175750000Y-101386071D01*
X176892857Y-101386071D02*
X176892857Y-100386071D01*
X176892857Y-100528928D02*
X176964285Y-100457500D01*
X177107142Y-100386071D01*
X177321428Y-100386071D01*
X177464285Y-100457500D01*
X177535714Y-100600357D01*
X177535714Y-101386071D01*
X177535714Y-100600357D02*
X177607142Y-100457500D01*
X177750000Y-100386071D01*
X177964285Y-100386071D01*
X178107142Y-100457500D01*
X178178571Y-100600357D01*
X178178571Y-101386071D01*
X161550000Y-72778571D02*
X162407142Y-72778571D01*
X161978571Y-74278571D02*
X161978571Y-72778571D01*
X163192857Y-72778571D02*
X163478571Y-72778571D01*
X163621428Y-72850000D01*
X163764285Y-72992857D01*
X163835714Y-73278571D01*
X163835714Y-73778571D01*
X163764285Y-74064285D01*
X163621428Y-74207142D01*
X163478571Y-74278571D01*
X163192857Y-74278571D01*
X163050000Y-74207142D01*
X162907142Y-74064285D01*
X162835714Y-73778571D01*
X162835714Y-73278571D01*
X162907142Y-72992857D01*
X163050000Y-72850000D01*
X163192857Y-72778571D01*
X165550000Y-73850000D02*
X166264285Y-73850000D01*
X165407142Y-74278571D02*
X165907142Y-72778571D01*
X166407142Y-74278571D01*
X166907142Y-74278571D02*
X166907142Y-72778571D01*
X167764285Y-74278571D01*
X167764285Y-72778571D01*
X168407142Y-73850000D02*
X169121428Y-73850000D01*
X168264285Y-74278571D02*
X168764285Y-72778571D01*
X169264285Y-74278571D01*
X170478571Y-74278571D02*
X169764285Y-74278571D01*
X169764285Y-72778571D01*
X171264285Y-73564285D02*
X171264285Y-74278571D01*
X170764285Y-72778571D02*
X171264285Y-73564285D01*
X171764285Y-72778571D01*
X172121428Y-72778571D02*
X173121428Y-72778571D01*
X172121428Y-74278571D01*
X173121428Y-74278571D01*
X173692857Y-73492857D02*
X174192857Y-73492857D01*
X174407142Y-74278571D02*
X173692857Y-74278571D01*
X173692857Y-72778571D01*
X174407142Y-72778571D01*
X175907142Y-74278571D02*
X175407142Y-73564285D01*
X175050000Y-74278571D02*
X175050000Y-72778571D01*
X175621428Y-72778571D01*
X175764285Y-72850000D01*
X175835714Y-72921428D01*
X175907142Y-73064285D01*
X175907142Y-73278571D01*
X175835714Y-73421428D01*
X175764285Y-73492857D01*
X175621428Y-73564285D01*
X175050000Y-73564285D01*
X184657142Y-95821428D02*
X184728571Y-95750000D01*
X184871428Y-95678571D01*
X185228571Y-95678571D01*
X185371428Y-95750000D01*
X185442857Y-95821428D01*
X185514285Y-95964285D01*
X185514285Y-96107142D01*
X185442857Y-96321428D01*
X184585714Y-97178571D01*
X185514285Y-97178571D01*
X186871428Y-95678571D02*
X186157142Y-95678571D01*
X186085714Y-96392857D01*
X186157142Y-96321428D01*
X186300000Y-96250000D01*
X186657142Y-96250000D01*
X186800000Y-96321428D01*
X186871428Y-96392857D01*
X186942857Y-96535714D01*
X186942857Y-96892857D01*
X186871428Y-97035714D01*
X186800000Y-97107142D01*
X186657142Y-97178571D01*
X186300000Y-97178571D01*
X186157142Y-97107142D01*
X186085714Y-97035714D01*
X114428571Y-97178571D02*
X113571428Y-97178571D01*
X114000000Y-97178571D02*
X114000000Y-95678571D01*
X113857142Y-95892857D01*
X113714285Y-96035714D01*
X113571428Y-96107142D01*
D11*
%TO.C,J3*%
X85952380Y-107583333D02*
X86666666Y-107583333D01*
X86809523Y-107630952D01*
X86904761Y-107726190D01*
X86952380Y-107869047D01*
X86952380Y-107964285D01*
X85952380Y-107202380D02*
X85952380Y-106583333D01*
X86333333Y-106916666D01*
X86333333Y-106773809D01*
X86380952Y-106678571D01*
X86428571Y-106630952D01*
X86523809Y-106583333D01*
X86761904Y-106583333D01*
X86857142Y-106630952D01*
X86904761Y-106678571D01*
X86952380Y-106773809D01*
X86952380Y-107059523D01*
X86904761Y-107154761D01*
X86857142Y-107202380D01*
%TO.C,J1*%
X123266666Y-72652380D02*
X123266666Y-73366666D01*
X123219047Y-73509523D01*
X123123809Y-73604761D01*
X122980952Y-73652380D01*
X122885714Y-73652380D01*
X124266666Y-73652380D02*
X123695238Y-73652380D01*
X123980952Y-73652380D02*
X123980952Y-72652380D01*
X123885714Y-72795238D01*
X123790476Y-72890476D01*
X123695238Y-72938095D01*
%TO.C,J2*%
X110712380Y-94333333D02*
X111426666Y-94333333D01*
X111569523Y-94380952D01*
X111664761Y-94476190D01*
X111712380Y-94619047D01*
X111712380Y-94714285D01*
X110807619Y-93904761D02*
X110760000Y-93857142D01*
X110712380Y-93761904D01*
X110712380Y-93523809D01*
X110760000Y-93428571D01*
X110807619Y-93380952D01*
X110902857Y-93333333D01*
X110998095Y-93333333D01*
X111140952Y-93380952D01*
X111712380Y-93952380D01*
X111712380Y-93333333D01*
%TO.C,C5*%
X143033333Y-84357142D02*
X142985714Y-84404761D01*
X142842857Y-84452380D01*
X142747619Y-84452380D01*
X142604761Y-84404761D01*
X142509523Y-84309523D01*
X142461904Y-84214285D01*
X142414285Y-84023809D01*
X142414285Y-83880952D01*
X142461904Y-83690476D01*
X142509523Y-83595238D01*
X142604761Y-83500000D01*
X142747619Y-83452380D01*
X142842857Y-83452380D01*
X142985714Y-83500000D01*
X143033333Y-83547619D01*
X143938095Y-83452380D02*
X143461904Y-83452380D01*
X143414285Y-83928571D01*
X143461904Y-83880952D01*
X143557142Y-83833333D01*
X143795238Y-83833333D01*
X143890476Y-83880952D01*
X143938095Y-83928571D01*
X143985714Y-84023809D01*
X143985714Y-84261904D01*
X143938095Y-84357142D01*
X143890476Y-84404761D01*
X143795238Y-84452380D01*
X143557142Y-84452380D01*
X143461904Y-84404761D01*
X143414285Y-84357142D01*
%TO.C,R9*%
X127833333Y-89452380D02*
X127500000Y-88976190D01*
X127261904Y-89452380D02*
X127261904Y-88452380D01*
X127642857Y-88452380D01*
X127738095Y-88500000D01*
X127785714Y-88547619D01*
X127833333Y-88642857D01*
X127833333Y-88785714D01*
X127785714Y-88880952D01*
X127738095Y-88928571D01*
X127642857Y-88976190D01*
X127261904Y-88976190D01*
X128309523Y-89452380D02*
X128500000Y-89452380D01*
X128595238Y-89404761D01*
X128642857Y-89357142D01*
X128738095Y-89214285D01*
X128785714Y-89023809D01*
X128785714Y-88642857D01*
X128738095Y-88547619D01*
X128690476Y-88500000D01*
X128595238Y-88452380D01*
X128404761Y-88452380D01*
X128309523Y-88500000D01*
X128261904Y-88547619D01*
X128214285Y-88642857D01*
X128214285Y-88880952D01*
X128261904Y-88976190D01*
X128309523Y-89023809D01*
X128404761Y-89071428D01*
X128595238Y-89071428D01*
X128690476Y-89023809D01*
X128738095Y-88976190D01*
X128785714Y-88880952D01*
%TO.C,R10*%
X142557142Y-80652380D02*
X142223809Y-80176190D01*
X141985714Y-80652380D02*
X141985714Y-79652380D01*
X142366666Y-79652380D01*
X142461904Y-79700000D01*
X142509523Y-79747619D01*
X142557142Y-79842857D01*
X142557142Y-79985714D01*
X142509523Y-80080952D01*
X142461904Y-80128571D01*
X142366666Y-80176190D01*
X141985714Y-80176190D01*
X143509523Y-80652380D02*
X142938095Y-80652380D01*
X143223809Y-80652380D02*
X143223809Y-79652380D01*
X143128571Y-79795238D01*
X143033333Y-79890476D01*
X142938095Y-79938095D01*
X144128571Y-79652380D02*
X144223809Y-79652380D01*
X144319047Y-79700000D01*
X144366666Y-79747619D01*
X144414285Y-79842857D01*
X144461904Y-80033333D01*
X144461904Y-80271428D01*
X144414285Y-80461904D01*
X144366666Y-80557142D01*
X144319047Y-80604761D01*
X144223809Y-80652380D01*
X144128571Y-80652380D01*
X144033333Y-80604761D01*
X143985714Y-80557142D01*
X143938095Y-80461904D01*
X143890476Y-80271428D01*
X143890476Y-80033333D01*
X143938095Y-79842857D01*
X143985714Y-79747619D01*
X144033333Y-79700000D01*
X144128571Y-79652380D01*
%TO.C,C2*%
X150113333Y-91957142D02*
X150065714Y-92004761D01*
X149922857Y-92052380D01*
X149827619Y-92052380D01*
X149684761Y-92004761D01*
X149589523Y-91909523D01*
X149541904Y-91814285D01*
X149494285Y-91623809D01*
X149494285Y-91480952D01*
X149541904Y-91290476D01*
X149589523Y-91195238D01*
X149684761Y-91100000D01*
X149827619Y-91052380D01*
X149922857Y-91052380D01*
X150065714Y-91100000D01*
X150113333Y-91147619D01*
X150494285Y-91147619D02*
X150541904Y-91100000D01*
X150637142Y-91052380D01*
X150875238Y-91052380D01*
X150970476Y-91100000D01*
X151018095Y-91147619D01*
X151065714Y-91242857D01*
X151065714Y-91338095D01*
X151018095Y-91480952D01*
X150446666Y-92052380D01*
X151065714Y-92052380D01*
%TO.C,C1*%
X157082142Y-82079166D02*
X157129761Y-82126785D01*
X157177380Y-82269642D01*
X157177380Y-82364880D01*
X157129761Y-82507738D01*
X157034523Y-82602976D01*
X156939285Y-82650595D01*
X156748809Y-82698214D01*
X156605952Y-82698214D01*
X156415476Y-82650595D01*
X156320238Y-82602976D01*
X156225000Y-82507738D01*
X156177380Y-82364880D01*
X156177380Y-82269642D01*
X156225000Y-82126785D01*
X156272619Y-82079166D01*
X157177380Y-81126785D02*
X157177380Y-81698214D01*
X157177380Y-81412500D02*
X156177380Y-81412500D01*
X156320238Y-81507738D01*
X156415476Y-81602976D01*
X156463095Y-81698214D01*
%TO.C,U1*%
X145952380Y-85561904D02*
X146761904Y-85561904D01*
X146857142Y-85514285D01*
X146904761Y-85466666D01*
X146952380Y-85371428D01*
X146952380Y-85180952D01*
X146904761Y-85085714D01*
X146857142Y-85038095D01*
X146761904Y-84990476D01*
X145952380Y-84990476D01*
X146952380Y-83990476D02*
X146952380Y-84561904D01*
X146952380Y-84276190D02*
X145952380Y-84276190D01*
X146095238Y-84371428D01*
X146190476Y-84466666D01*
X146238095Y-84561904D01*
%TO.C,R6*%
X127833333Y-80652380D02*
X127500000Y-80176190D01*
X127261904Y-80652380D02*
X127261904Y-79652380D01*
X127642857Y-79652380D01*
X127738095Y-79700000D01*
X127785714Y-79747619D01*
X127833333Y-79842857D01*
X127833333Y-79985714D01*
X127785714Y-80080952D01*
X127738095Y-80128571D01*
X127642857Y-80176190D01*
X127261904Y-80176190D01*
X128690476Y-79652380D02*
X128500000Y-79652380D01*
X128404761Y-79700000D01*
X128357142Y-79747619D01*
X128261904Y-79890476D01*
X128214285Y-80080952D01*
X128214285Y-80461904D01*
X128261904Y-80557142D01*
X128309523Y-80604761D01*
X128404761Y-80652380D01*
X128595238Y-80652380D01*
X128690476Y-80604761D01*
X128738095Y-80557142D01*
X128785714Y-80461904D01*
X128785714Y-80223809D01*
X128738095Y-80128571D01*
X128690476Y-80080952D01*
X128595238Y-80033333D01*
X128404761Y-80033333D01*
X128309523Y-80080952D01*
X128261904Y-80128571D01*
X128214285Y-80223809D01*
%TO.C,C3*%
X152913333Y-78497142D02*
X152865714Y-78544761D01*
X152722857Y-78592380D01*
X152627619Y-78592380D01*
X152484761Y-78544761D01*
X152389523Y-78449523D01*
X152341904Y-78354285D01*
X152294285Y-78163809D01*
X152294285Y-78020952D01*
X152341904Y-77830476D01*
X152389523Y-77735238D01*
X152484761Y-77640000D01*
X152627619Y-77592380D01*
X152722857Y-77592380D01*
X152865714Y-77640000D01*
X152913333Y-77687619D01*
X153246666Y-77592380D02*
X153865714Y-77592380D01*
X153532380Y-77973333D01*
X153675238Y-77973333D01*
X153770476Y-78020952D01*
X153818095Y-78068571D01*
X153865714Y-78163809D01*
X153865714Y-78401904D01*
X153818095Y-78497142D01*
X153770476Y-78544761D01*
X153675238Y-78592380D01*
X153389523Y-78592380D01*
X153294285Y-78544761D01*
X153246666Y-78497142D01*
%TO.C,U2*%
X171038095Y-75302380D02*
X171038095Y-76111904D01*
X171085714Y-76207142D01*
X171133333Y-76254761D01*
X171228571Y-76302380D01*
X171419047Y-76302380D01*
X171514285Y-76254761D01*
X171561904Y-76207142D01*
X171609523Y-76111904D01*
X171609523Y-75302380D01*
X172038095Y-75397619D02*
X172085714Y-75350000D01*
X172180952Y-75302380D01*
X172419047Y-75302380D01*
X172514285Y-75350000D01*
X172561904Y-75397619D01*
X172609523Y-75492857D01*
X172609523Y-75588095D01*
X172561904Y-75730952D01*
X171990476Y-76302380D01*
X172609523Y-76302380D01*
%TO.C,C4*%
X179233333Y-84357142D02*
X179185714Y-84404761D01*
X179042857Y-84452380D01*
X178947619Y-84452380D01*
X178804761Y-84404761D01*
X178709523Y-84309523D01*
X178661904Y-84214285D01*
X178614285Y-84023809D01*
X178614285Y-83880952D01*
X178661904Y-83690476D01*
X178709523Y-83595238D01*
X178804761Y-83500000D01*
X178947619Y-83452380D01*
X179042857Y-83452380D01*
X179185714Y-83500000D01*
X179233333Y-83547619D01*
X180090476Y-83785714D02*
X180090476Y-84452380D01*
X179852380Y-83404761D02*
X179614285Y-84119047D01*
X180233333Y-84119047D01*
%TO.C,R1*%
X179233333Y-90852380D02*
X178900000Y-90376190D01*
X178661904Y-90852380D02*
X178661904Y-89852380D01*
X179042857Y-89852380D01*
X179138095Y-89900000D01*
X179185714Y-89947619D01*
X179233333Y-90042857D01*
X179233333Y-90185714D01*
X179185714Y-90280952D01*
X179138095Y-90328571D01*
X179042857Y-90376190D01*
X178661904Y-90376190D01*
X180185714Y-90852380D02*
X179614285Y-90852380D01*
X179900000Y-90852380D02*
X179900000Y-89852380D01*
X179804761Y-89995238D01*
X179709523Y-90090476D01*
X179614285Y-90138095D01*
%TO.C,R7*%
X164033333Y-86652380D02*
X163700000Y-86176190D01*
X163461904Y-86652380D02*
X163461904Y-85652380D01*
X163842857Y-85652380D01*
X163938095Y-85700000D01*
X163985714Y-85747619D01*
X164033333Y-85842857D01*
X164033333Y-85985714D01*
X163985714Y-86080952D01*
X163938095Y-86128571D01*
X163842857Y-86176190D01*
X163461904Y-86176190D01*
X164366666Y-85652380D02*
X165033333Y-85652380D01*
X164604761Y-86652380D01*
%TO.C,R5*%
X164033333Y-80652380D02*
X163700000Y-80176190D01*
X163461904Y-80652380D02*
X163461904Y-79652380D01*
X163842857Y-79652380D01*
X163938095Y-79700000D01*
X163985714Y-79747619D01*
X164033333Y-79842857D01*
X164033333Y-79985714D01*
X163985714Y-80080952D01*
X163938095Y-80128571D01*
X163842857Y-80176190D01*
X163461904Y-80176190D01*
X164938095Y-79652380D02*
X164461904Y-79652380D01*
X164414285Y-80128571D01*
X164461904Y-80080952D01*
X164557142Y-80033333D01*
X164795238Y-80033333D01*
X164890476Y-80080952D01*
X164938095Y-80128571D01*
X164985714Y-80223809D01*
X164985714Y-80461904D01*
X164938095Y-80557142D01*
X164890476Y-80604761D01*
X164795238Y-80652380D01*
X164557142Y-80652380D01*
X164461904Y-80604761D01*
X164414285Y-80557142D01*
%TO.C,R3*%
X143033333Y-89652380D02*
X142700000Y-89176190D01*
X142461904Y-89652380D02*
X142461904Y-88652380D01*
X142842857Y-88652380D01*
X142938095Y-88700000D01*
X142985714Y-88747619D01*
X143033333Y-88842857D01*
X143033333Y-88985714D01*
X142985714Y-89080952D01*
X142938095Y-89128571D01*
X142842857Y-89176190D01*
X142461904Y-89176190D01*
X143366666Y-88652380D02*
X143985714Y-88652380D01*
X143652380Y-89033333D01*
X143795238Y-89033333D01*
X143890476Y-89080952D01*
X143938095Y-89128571D01*
X143985714Y-89223809D01*
X143985714Y-89461904D01*
X143938095Y-89557142D01*
X143890476Y-89604761D01*
X143795238Y-89652380D01*
X143509523Y-89652380D01*
X143414285Y-89604761D01*
X143366666Y-89557142D01*
%TO.C,U3*%
X134838095Y-75302380D02*
X134838095Y-76111904D01*
X134885714Y-76207142D01*
X134933333Y-76254761D01*
X135028571Y-76302380D01*
X135219047Y-76302380D01*
X135314285Y-76254761D01*
X135361904Y-76207142D01*
X135409523Y-76111904D01*
X135409523Y-75302380D01*
X135790476Y-75302380D02*
X136409523Y-75302380D01*
X136076190Y-75683333D01*
X136219047Y-75683333D01*
X136314285Y-75730952D01*
X136361904Y-75778571D01*
X136409523Y-75873809D01*
X136409523Y-76111904D01*
X136361904Y-76207142D01*
X136314285Y-76254761D01*
X136219047Y-76302380D01*
X135933333Y-76302380D01*
X135838095Y-76254761D01*
X135790476Y-76207142D01*
%TO.C,U4*%
X156027380Y-87474404D02*
X156836904Y-87474404D01*
X156932142Y-87426785D01*
X156979761Y-87379166D01*
X157027380Y-87283928D01*
X157027380Y-87093452D01*
X156979761Y-86998214D01*
X156932142Y-86950595D01*
X156836904Y-86902976D01*
X156027380Y-86902976D01*
X156360714Y-85998214D02*
X157027380Y-85998214D01*
X155979761Y-86236309D02*
X156694047Y-86474404D01*
X156694047Y-85855357D01*
%TO.C,R4*%
X179233333Y-86652380D02*
X178900000Y-86176190D01*
X178661904Y-86652380D02*
X178661904Y-85652380D01*
X179042857Y-85652380D01*
X179138095Y-85700000D01*
X179185714Y-85747619D01*
X179233333Y-85842857D01*
X179233333Y-85985714D01*
X179185714Y-86080952D01*
X179138095Y-86128571D01*
X179042857Y-86176190D01*
X178661904Y-86176190D01*
X180090476Y-85985714D02*
X180090476Y-86652380D01*
X179852380Y-85604761D02*
X179614285Y-86319047D01*
X180233333Y-86319047D01*
%TO.C,R2*%
X164033333Y-91052380D02*
X163700000Y-90576190D01*
X163461904Y-91052380D02*
X163461904Y-90052380D01*
X163842857Y-90052380D01*
X163938095Y-90100000D01*
X163985714Y-90147619D01*
X164033333Y-90242857D01*
X164033333Y-90385714D01*
X163985714Y-90480952D01*
X163938095Y-90528571D01*
X163842857Y-90576190D01*
X163461904Y-90576190D01*
X164414285Y-90147619D02*
X164461904Y-90100000D01*
X164557142Y-90052380D01*
X164795238Y-90052380D01*
X164890476Y-90100000D01*
X164938095Y-90147619D01*
X164985714Y-90242857D01*
X164985714Y-90338095D01*
X164938095Y-90480952D01*
X164366666Y-91052380D01*
X164985714Y-91052380D01*
%TO.C,R8*%
X179233333Y-80652380D02*
X178900000Y-80176190D01*
X178661904Y-80652380D02*
X178661904Y-79652380D01*
X179042857Y-79652380D01*
X179138095Y-79700000D01*
X179185714Y-79747619D01*
X179233333Y-79842857D01*
X179233333Y-79985714D01*
X179185714Y-80080952D01*
X179138095Y-80128571D01*
X179042857Y-80176190D01*
X178661904Y-80176190D01*
X179804761Y-80080952D02*
X179709523Y-80033333D01*
X179661904Y-79985714D01*
X179614285Y-79890476D01*
X179614285Y-79842857D01*
X179661904Y-79747619D01*
X179709523Y-79700000D01*
X179804761Y-79652380D01*
X179995238Y-79652380D01*
X180090476Y-79700000D01*
X180138095Y-79747619D01*
X180185714Y-79842857D01*
X180185714Y-79890476D01*
X180138095Y-79985714D01*
X180090476Y-80033333D01*
X179995238Y-80080952D01*
X179804761Y-80080952D01*
X179709523Y-80128571D01*
X179661904Y-80176190D01*
X179614285Y-80271428D01*
X179614285Y-80461904D01*
X179661904Y-80557142D01*
X179709523Y-80604761D01*
X179804761Y-80652380D01*
X179995238Y-80652380D01*
X180090476Y-80604761D01*
X180138095Y-80557142D01*
X180185714Y-80461904D01*
X180185714Y-80271428D01*
X180138095Y-80176190D01*
X180090476Y-80128571D01*
X179995238Y-80080952D01*
D12*
%TO.C,J3*%
X217000000Y-109750000D02*
X217000000Y-104750000D01*
X211500000Y-109750000D02*
X217000000Y-109750000D01*
X82000000Y-109750000D02*
X82000000Y-104750000D01*
X82000000Y-109750000D02*
X87500000Y-109750000D01*
D13*
X87000000Y-103250000D02*
G75*
G03*
X87000000Y-103250000I0J0D01*
G01*
D12*
%TO.C,J1*%
X122890000Y-72360000D02*
X122890000Y-60020000D01*
X176110000Y-72360000D02*
X122890000Y-72360000D01*
X132630000Y-73254338D02*
X132880000Y-72821325D01*
X133130000Y-73254338D02*
X132630000Y-73254338D01*
X176110000Y-60020000D02*
X176110000Y-72360000D01*
X132880000Y-72821325D02*
X133130000Y-73254338D01*
%TO.C,C5*%
X143059420Y-83110000D02*
X143340580Y-83110000D01*
X143059420Y-82090000D02*
X143340580Y-82090000D01*
%TO.C,R9*%
X127762742Y-87077500D02*
X128237258Y-87077500D01*
X127762742Y-88122500D02*
X128237258Y-88122500D01*
%TO.C,R10*%
X143437258Y-78277500D02*
X142962742Y-78277500D01*
X143437258Y-79322500D02*
X142962742Y-79322500D01*
%TO.C,C2*%
X150420580Y-90680000D02*
X150139420Y-90680000D01*
X150420580Y-89660000D02*
X150139420Y-89660000D01*
%TO.C,C1*%
X158665000Y-82053080D02*
X158665000Y-81771920D01*
X157645000Y-82053080D02*
X157645000Y-81771920D01*
%TO.C,U1*%
X147590000Y-88900000D02*
X147590000Y-82890000D01*
X154410000Y-86650000D02*
X154410000Y-82890000D01*
X147590000Y-82890000D02*
X148850000Y-82890000D01*
X154410000Y-82890000D02*
X153150000Y-82890000D01*
%TO.C,R6*%
X127762742Y-78277500D02*
X128237258Y-78277500D01*
X127762742Y-79322500D02*
X128237258Y-79322500D01*
%TO.C,C3*%
X152939420Y-79060000D02*
X153220580Y-79060000D01*
X152939420Y-80080000D02*
X153220580Y-80080000D01*
%TO.C,U2*%
X175660000Y-76690000D02*
X175660000Y-76925000D01*
X167940000Y-76925000D02*
X166125000Y-76925000D01*
X167940000Y-76690000D02*
X167940000Y-76925000D01*
X171800000Y-76690000D02*
X167940000Y-76690000D01*
X171800000Y-89710000D02*
X175660000Y-89710000D01*
X171800000Y-76690000D02*
X175660000Y-76690000D01*
X171800000Y-89710000D02*
X167940000Y-89710000D01*
X167940000Y-89710000D02*
X167940000Y-89475000D01*
X175660000Y-89710000D02*
X175660000Y-89475000D01*
%TO.C,C4*%
X179259420Y-82090000D02*
X179540580Y-82090000D01*
X179259420Y-83110000D02*
X179540580Y-83110000D01*
%TO.C,R1*%
X179162742Y-88477500D02*
X179637258Y-88477500D01*
X179162742Y-89522500D02*
X179637258Y-89522500D01*
%TO.C,R7*%
X163962742Y-88122500D02*
X164437258Y-88122500D01*
X163962742Y-87077500D02*
X164437258Y-87077500D01*
%TO.C,R5*%
X163962742Y-79322500D02*
X164437258Y-79322500D01*
X163962742Y-78277500D02*
X164437258Y-78277500D01*
%TO.C,R3*%
X143437258Y-88322500D02*
X142962742Y-88322500D01*
X143437258Y-87277500D02*
X142962742Y-87277500D01*
%TO.C,U3*%
X135600000Y-76690000D02*
X131740000Y-76690000D01*
X131740000Y-89710000D02*
X131740000Y-89475000D01*
X131740000Y-76925000D02*
X129925000Y-76925000D01*
X135600000Y-89710000D02*
X131740000Y-89710000D01*
X139460000Y-89710000D02*
X139460000Y-89475000D01*
X131740000Y-76690000D02*
X131740000Y-76925000D01*
X139460000Y-76690000D02*
X139460000Y-76925000D01*
X135600000Y-89710000D02*
X139460000Y-89710000D01*
X135600000Y-76690000D02*
X139460000Y-76690000D01*
%TO.C,U4*%
X160635000Y-86712500D02*
X160635000Y-88212500D01*
X160635000Y-86712500D02*
X160635000Y-85212500D01*
X157415000Y-86712500D02*
X157415000Y-85212500D01*
X157415000Y-86712500D02*
X157415000Y-89637500D01*
%TO.C,R4*%
X179637258Y-86877500D02*
X179162742Y-86877500D01*
X179637258Y-87922500D02*
X179162742Y-87922500D01*
%TO.C,R2*%
X164437258Y-88677500D02*
X163962742Y-88677500D01*
X164437258Y-89722500D02*
X163962742Y-89722500D01*
%TO.C,R8*%
X179637258Y-78277500D02*
X179162742Y-78277500D01*
X179637258Y-79322500D02*
X179162742Y-79322500D01*
%TD*%
M02*
